%TF.GenerationSoftware,KiCad,Pcbnew,7.0.2*%
%TF.CreationDate,2023-04-22T16:22:17+02:00*%
%TF.ProjectId,Button_matrix,42757474-6f6e-45f6-9d61-747269782e6b,rev?*%
%TF.SameCoordinates,Original*%
%TF.FileFunction,Soldermask,Top*%
%TF.FilePolarity,Negative*%
%FSLAX46Y46*%
G04 Gerber Fmt 4.6, Leading zero omitted, Abs format (unit mm)*
G04 Created by KiCad (PCBNEW 7.0.2) date 2023-04-22 16:22:17*
%MOMM*%
%LPD*%
G01*
G04 APERTURE LIST*
G04 Aperture macros list*
%AMRoundRect*
0 Rectangle with rounded corners*
0 $1 Rounding radius*
0 $2 $3 $4 $5 $6 $7 $8 $9 X,Y pos of 4 corners*
0 Add a 4 corners polygon primitive as box body*
4,1,4,$2,$3,$4,$5,$6,$7,$8,$9,$2,$3,0*
0 Add four circle primitives for the rounded corners*
1,1,$1+$1,$2,$3*
1,1,$1+$1,$4,$5*
1,1,$1+$1,$6,$7*
1,1,$1+$1,$8,$9*
0 Add four rect primitives between the rounded corners*
20,1,$1+$1,$2,$3,$4,$5,0*
20,1,$1+$1,$4,$5,$6,$7,0*
20,1,$1+$1,$6,$7,$8,$9,0*
20,1,$1+$1,$8,$9,$2,$3,0*%
G04 Aperture macros list end*
%ADD10RoundRect,0.150000X0.150000X0.200000X-0.150000X0.200000X-0.150000X-0.200000X0.150000X-0.200000X0*%
%ADD11R,1.600000X1.400000*%
%ADD12R,1.700000X1.700000*%
%ADD13O,1.700000X1.700000*%
G04 APERTURE END LIST*
%TO.C,G\u002A\u002A\u002A*%
G36*
X72083308Y-92028283D02*
G01*
X72081771Y-92029819D01*
X72080235Y-92028283D01*
X72081771Y-92026747D01*
X72083308Y-92028283D01*
G37*
G36*
X71839559Y-91732815D02*
G01*
X71839927Y-91736462D01*
X71839559Y-91736912D01*
X71837733Y-91736490D01*
X71837511Y-91734864D01*
X71838635Y-91732335D01*
X71839559Y-91732815D01*
G37*
G36*
X72085889Y-92028283D02*
G01*
X72084352Y-92029819D01*
X72082816Y-92028283D01*
X72084352Y-92026747D01*
X72085889Y-92028283D01*
G37*
G36*
X73527710Y-90172094D02*
G01*
X73534687Y-90172885D01*
X73545162Y-90174271D01*
X73559814Y-90176327D01*
X73579320Y-90179128D01*
X73599074Y-90181984D01*
X73690207Y-90198051D01*
X73778897Y-90219493D01*
X73864922Y-90246228D01*
X73948064Y-90278174D01*
X74028102Y-90315247D01*
X74104815Y-90357367D01*
X74156725Y-90390013D01*
X74234265Y-90445005D01*
X74307022Y-90503842D01*
X74375044Y-90566576D01*
X74438383Y-90633259D01*
X74497088Y-90703942D01*
X74551210Y-90778678D01*
X74586544Y-90833675D01*
X74594308Y-90845961D01*
X74601237Y-90856150D01*
X74606567Y-90863169D01*
X74609503Y-90865936D01*
X74608685Y-90868556D01*
X74604799Y-90875527D01*
X74598305Y-90886170D01*
X74589661Y-90899803D01*
X74579326Y-90915744D01*
X74567757Y-90933314D01*
X74555415Y-90951831D01*
X74542756Y-90970613D01*
X74530240Y-90988981D01*
X74518325Y-91006253D01*
X74507470Y-91021748D01*
X74498133Y-91034785D01*
X74490773Y-91044683D01*
X74485848Y-91050761D01*
X74483941Y-91052417D01*
X74481133Y-91050429D01*
X74474148Y-91044727D01*
X74463409Y-91035673D01*
X74449337Y-91023632D01*
X74432353Y-91008966D01*
X74412877Y-90992038D01*
X74391332Y-90973212D01*
X74368138Y-90952852D01*
X74350289Y-90937125D01*
X74312899Y-90904112D01*
X74279455Y-90874548D01*
X74249285Y-90847827D01*
X74221715Y-90823344D01*
X74196072Y-90800496D01*
X74171685Y-90778676D01*
X74147880Y-90757282D01*
X74123984Y-90735707D01*
X74099324Y-90713348D01*
X74073228Y-90689599D01*
X74045023Y-90663856D01*
X74014036Y-90635514D01*
X73980117Y-90604448D01*
X73952012Y-90578644D01*
X73922513Y-90551465D01*
X73891944Y-90523216D01*
X73860629Y-90494200D01*
X73828891Y-90464722D01*
X73797054Y-90435086D01*
X73765442Y-90405595D01*
X73734378Y-90376555D01*
X73704187Y-90348268D01*
X73675191Y-90321039D01*
X73647714Y-90295172D01*
X73622081Y-90270972D01*
X73598614Y-90248741D01*
X73577638Y-90228784D01*
X73559476Y-90211406D01*
X73544453Y-90196909D01*
X73532890Y-90185599D01*
X73525113Y-90177780D01*
X73521445Y-90173754D01*
X73521211Y-90173384D01*
X73520982Y-90172543D01*
X73521536Y-90171998D01*
X73523553Y-90171824D01*
X73527710Y-90172094D01*
G37*
G36*
X75674869Y-89777825D02*
G01*
X75737788Y-89786926D01*
X75800923Y-89802138D01*
X75864233Y-89823452D01*
X75927228Y-89850647D01*
X75940680Y-89857267D01*
X75951857Y-89863101D01*
X75959722Y-89867585D01*
X75963238Y-89870151D01*
X75963329Y-89870368D01*
X75961129Y-89873234D01*
X75955174Y-89879119D01*
X75946426Y-89887104D01*
X75937981Y-89894460D01*
X75893340Y-89928825D01*
X75846552Y-89957439D01*
X75797566Y-89980325D01*
X75746335Y-89997510D01*
X75714460Y-90005100D01*
X75694287Y-90008369D01*
X75670679Y-90010862D01*
X75645473Y-90012500D01*
X75620505Y-90013202D01*
X75597613Y-90012887D01*
X75578633Y-90011475D01*
X75576200Y-90011158D01*
X75519782Y-90000412D01*
X75466348Y-89984386D01*
X75416020Y-89963136D01*
X75368920Y-89936722D01*
X75325168Y-89905200D01*
X75293041Y-89876714D01*
X75275650Y-89859866D01*
X75303258Y-89846429D01*
X75340074Y-89830302D01*
X75381262Y-89815390D01*
X75425093Y-89802172D01*
X75469837Y-89791129D01*
X75513765Y-89782741D01*
X75549849Y-89777988D01*
X75612208Y-89774843D01*
X75674869Y-89777825D01*
G37*
G36*
X75788199Y-89496579D02*
G01*
X75786663Y-89498115D01*
X75785127Y-89496579D01*
X75786663Y-89495043D01*
X75788199Y-89496579D01*
G37*
G36*
X75581789Y-88477668D02*
G01*
X75579354Y-88483602D01*
X75574573Y-88493533D01*
X75567216Y-88508140D01*
X75565947Y-88510636D01*
X75545601Y-88549222D01*
X75522550Y-88590483D01*
X75497998Y-88632350D01*
X75473146Y-88672757D01*
X75457521Y-88697074D01*
X75449480Y-88709035D01*
X75439246Y-88723773D01*
X75427330Y-88740598D01*
X75414241Y-88758819D01*
X75400491Y-88777745D01*
X75386590Y-88796686D01*
X75373047Y-88814949D01*
X75360374Y-88831845D01*
X75349081Y-88846682D01*
X75339678Y-88858770D01*
X75332676Y-88867417D01*
X75328585Y-88871933D01*
X75328045Y-88872355D01*
X75325217Y-88870791D01*
X75318270Y-88865736D01*
X75307789Y-88857652D01*
X75294360Y-88847002D01*
X75278569Y-88834246D01*
X75261001Y-88819846D01*
X75252055Y-88812441D01*
X75233691Y-88797172D01*
X75216742Y-88783043D01*
X75201819Y-88770565D01*
X75189530Y-88760247D01*
X75180482Y-88752600D01*
X75175286Y-88748135D01*
X75174368Y-88747302D01*
X75174447Y-88746020D01*
X75176473Y-88743622D01*
X75180739Y-88739909D01*
X75187536Y-88734678D01*
X75197155Y-88727731D01*
X75209889Y-88718866D01*
X75226029Y-88707884D01*
X75245867Y-88694584D01*
X75269694Y-88678765D01*
X75297802Y-88660227D01*
X75330483Y-88638770D01*
X75368028Y-88614194D01*
X75369469Y-88613251D01*
X75401228Y-88592483D01*
X75431647Y-88572583D01*
X75460312Y-88553824D01*
X75486807Y-88536477D01*
X75510717Y-88520815D01*
X75531629Y-88507108D01*
X75549127Y-88495629D01*
X75562796Y-88486650D01*
X75572222Y-88480441D01*
X75576990Y-88477276D01*
X75577309Y-88477059D01*
X75580537Y-88475075D01*
X75582106Y-88475052D01*
X75581789Y-88477668D01*
G37*
G36*
X73361761Y-88434246D02*
G01*
X73368550Y-88438899D01*
X73378670Y-88446273D01*
X73391377Y-88455823D01*
X73405924Y-88467005D01*
X73409068Y-88469450D01*
X73462298Y-88510400D01*
X73512217Y-88547592D01*
X73559815Y-88581661D01*
X73606082Y-88613238D01*
X73652007Y-88642956D01*
X73698580Y-88671447D01*
X73746791Y-88699344D01*
X73797630Y-88727279D01*
X73852085Y-88755885D01*
X73877974Y-88769115D01*
X73914150Y-88787462D01*
X73902252Y-88795336D01*
X73886898Y-88804524D01*
X73867823Y-88814506D01*
X73847178Y-88824268D01*
X73827116Y-88832799D01*
X73809790Y-88839087D01*
X73808122Y-88839605D01*
X73768648Y-88849270D01*
X73728605Y-88854692D01*
X73689588Y-88855728D01*
X73657450Y-88852914D01*
X73635262Y-88848547D01*
X73610284Y-88841911D01*
X73585064Y-88833777D01*
X73562153Y-88824917D01*
X73556133Y-88822243D01*
X73517974Y-88801957D01*
X73484197Y-88778122D01*
X73453697Y-88749951D01*
X73451930Y-88748086D01*
X73420783Y-88711162D01*
X73395554Y-88672753D01*
X73376140Y-88632604D01*
X73362438Y-88590461D01*
X73354346Y-88546070D01*
X73351759Y-88500112D01*
X73352106Y-88485200D01*
X73353032Y-88469911D01*
X73354387Y-88455627D01*
X73356021Y-88443730D01*
X73357784Y-88435601D01*
X73359048Y-88432859D01*
X73361761Y-88434246D01*
G37*
G36*
X71867744Y-86924933D02*
G01*
X71866208Y-86926469D01*
X71864672Y-86924933D01*
X71866208Y-86923396D01*
X71867744Y-86924933D01*
G37*
G36*
X72079744Y-86215195D02*
G01*
X72078208Y-86216731D01*
X72076671Y-86215195D01*
X72078208Y-86213659D01*
X72079744Y-86215195D01*
G37*
%TD*%
D10*
%TO.C,D14*%
X89216000Y-86360000D03*
X90616000Y-86360000D03*
%TD*%
%TO.C,D16*%
X112584000Y-86360000D03*
X113984000Y-86360000D03*
%TD*%
%TO.C,D5*%
X78040000Y-66040000D03*
X79440000Y-66040000D03*
%TD*%
%TO.C,D8*%
X112584000Y-66040000D03*
X113984000Y-66040000D03*
%TD*%
%TO.C,D12*%
X112584000Y-76200000D03*
X113984000Y-76200000D03*
%TD*%
D11*
%TO.C,SW10*%
X83630000Y-68870000D03*
X91630000Y-68870000D03*
X83630000Y-73370000D03*
X91630000Y-73370000D03*
%TD*%
D10*
%TO.C,D10*%
X89216000Y-76200000D03*
X90616000Y-76200000D03*
%TD*%
%TO.C,D7*%
X100900000Y-66040000D03*
X102300000Y-66040000D03*
%TD*%
D11*
%TO.C,SW3*%
X95060000Y-48550000D03*
X103060000Y-48550000D03*
X95060000Y-53050000D03*
X103060000Y-53050000D03*
%TD*%
%TO.C,SW8*%
X106490000Y-58710000D03*
X114490000Y-58710000D03*
X106490000Y-63210000D03*
X114490000Y-63210000D03*
%TD*%
%TO.C,SW15*%
X95060000Y-79030000D03*
X103060000Y-79030000D03*
X95060000Y-83530000D03*
X103060000Y-83530000D03*
%TD*%
%TO.C,SW14*%
X83630000Y-79030000D03*
X91630000Y-79030000D03*
X83630000Y-83530000D03*
X91630000Y-83530000D03*
%TD*%
%TO.C,SW9*%
X72200000Y-68870000D03*
X80200000Y-68870000D03*
X72200000Y-73370000D03*
X80200000Y-73370000D03*
%TD*%
D10*
%TO.C,D11*%
X100900000Y-76200000D03*
X102300000Y-76200000D03*
%TD*%
D11*
%TO.C,SW4*%
X106490000Y-48550000D03*
X114490000Y-48550000D03*
X106490000Y-53050000D03*
X114490000Y-53050000D03*
%TD*%
%TO.C,SW11*%
X95060000Y-68870000D03*
X103060000Y-68870000D03*
X95060000Y-73370000D03*
X103060000Y-73370000D03*
%TD*%
D10*
%TO.C,D6*%
X89216000Y-66040000D03*
X90616000Y-66040000D03*
%TD*%
D11*
%TO.C,SW7*%
X95060000Y-58710000D03*
X103060000Y-58710000D03*
X95060000Y-63210000D03*
X103060000Y-63210000D03*
%TD*%
D10*
%TO.C,D13*%
X78040000Y-86360000D03*
X79440000Y-86360000D03*
%TD*%
D11*
%TO.C,SW5*%
X72200000Y-58710000D03*
X80200000Y-58710000D03*
X72200000Y-63210000D03*
X80200000Y-63210000D03*
%TD*%
D10*
%TO.C,D2*%
X89216000Y-55880000D03*
X90616000Y-55880000D03*
%TD*%
%TO.C,D9*%
X78040000Y-76200000D03*
X79440000Y-76200000D03*
%TD*%
D11*
%TO.C,SW1*%
X72200000Y-48550000D03*
X80200000Y-48550000D03*
X72200000Y-53050000D03*
X80200000Y-53050000D03*
%TD*%
D10*
%TO.C,D4*%
X112584000Y-55880000D03*
X113984000Y-55880000D03*
%TD*%
%TO.C,D1*%
X78040000Y-55880000D03*
X79440000Y-55880000D03*
%TD*%
D11*
%TO.C,SW6*%
X83630000Y-58710000D03*
X91630000Y-58710000D03*
X83630000Y-63210000D03*
X91630000Y-63210000D03*
%TD*%
%TO.C,SW2*%
X83630000Y-48550000D03*
X91630000Y-48550000D03*
X83630000Y-53050000D03*
X91630000Y-53050000D03*
%TD*%
D10*
%TO.C,D15*%
X100900000Y-86360000D03*
X102300000Y-86360000D03*
%TD*%
D12*
%TO.C,J1*%
X85105000Y-90170000D03*
D13*
X87645000Y-90170000D03*
X90185000Y-90170000D03*
X92725000Y-90170000D03*
X95265000Y-90170000D03*
X97805000Y-90170000D03*
X100345000Y-90170000D03*
X102885000Y-90170000D03*
%TD*%
D11*
%TO.C,SW12*%
X106490000Y-68870000D03*
X114490000Y-68870000D03*
X106490000Y-73370000D03*
X114490000Y-73370000D03*
%TD*%
D10*
%TO.C,D3*%
X100900000Y-55880000D03*
X102300000Y-55880000D03*
%TD*%
D11*
%TO.C,SW16*%
X106490000Y-79030000D03*
X114490000Y-79030000D03*
X106490000Y-83530000D03*
X114490000Y-83530000D03*
%TD*%
%TO.C,SW13*%
X72200000Y-79030000D03*
X80200000Y-79030000D03*
X72200000Y-83530000D03*
X80200000Y-83530000D03*
%TD*%
M02*
