%TF.GenerationSoftware,KiCad,Pcbnew,7.0.2*%
%TF.CreationDate,2023-04-22T16:22:17+02:00*%
%TF.ProjectId,Button_matrix,42757474-6f6e-45f6-9d61-747269782e6b,rev?*%
%TF.SameCoordinates,Original*%
%TF.FileFunction,Copper,L1,Top*%
%TF.FilePolarity,Positive*%
%FSLAX46Y46*%
G04 Gerber Fmt 4.6, Leading zero omitted, Abs format (unit mm)*
G04 Created by KiCad (PCBNEW 7.0.2) date 2023-04-22 16:22:17*
%MOMM*%
%LPD*%
G01*
G04 APERTURE LIST*
G04 Aperture macros list*
%AMRoundRect*
0 Rectangle with rounded corners*
0 $1 Rounding radius*
0 $2 $3 $4 $5 $6 $7 $8 $9 X,Y pos of 4 corners*
0 Add a 4 corners polygon primitive as box body*
4,1,4,$2,$3,$4,$5,$6,$7,$8,$9,$2,$3,0*
0 Add four circle primitives for the rounded corners*
1,1,$1+$1,$2,$3*
1,1,$1+$1,$4,$5*
1,1,$1+$1,$6,$7*
1,1,$1+$1,$8,$9*
0 Add four rect primitives between the rounded corners*
20,1,$1+$1,$2,$3,$4,$5,0*
20,1,$1+$1,$4,$5,$6,$7,0*
20,1,$1+$1,$6,$7,$8,$9,0*
20,1,$1+$1,$8,$9,$2,$3,0*%
G04 Aperture macros list end*
%TA.AperFunction,SMDPad,CuDef*%
%ADD10RoundRect,0.150000X0.150000X0.200000X-0.150000X0.200000X-0.150000X-0.200000X0.150000X-0.200000X0*%
%TD*%
%TA.AperFunction,SMDPad,CuDef*%
%ADD11R,1.600000X1.400000*%
%TD*%
%TA.AperFunction,ComponentPad*%
%ADD12R,1.700000X1.700000*%
%TD*%
%TA.AperFunction,ComponentPad*%
%ADD13O,1.700000X1.700000*%
%TD*%
%TA.AperFunction,ViaPad*%
%ADD14C,0.700000*%
%TD*%
%TA.AperFunction,Conductor*%
%ADD15C,0.500000*%
%TD*%
G04 APERTURE END LIST*
%TA.AperFunction,EtchedComponent*%
%TO.C,G\u002A\u002A\u002A*%
G36*
X72300769Y-89751422D02*
G01*
X72300354Y-89754713D01*
X72297821Y-89758487D01*
X72295201Y-89761506D01*
X72288819Y-89768845D01*
X72278948Y-89780188D01*
X72265860Y-89795222D01*
X72249831Y-89813633D01*
X72231132Y-89835105D01*
X72210038Y-89859327D01*
X72186823Y-89885982D01*
X72161760Y-89914757D01*
X72135122Y-89945338D01*
X72107183Y-89977411D01*
X72084426Y-90003534D01*
X72055443Y-90036829D01*
X72027415Y-90069078D01*
X72000631Y-90099945D01*
X71975378Y-90129098D01*
X71951943Y-90156203D01*
X71930615Y-90180926D01*
X71911680Y-90202933D01*
X71895426Y-90221891D01*
X71882142Y-90237466D01*
X71872114Y-90249324D01*
X71865631Y-90257132D01*
X71863300Y-90260084D01*
X71851686Y-90276621D01*
X71837553Y-90297805D01*
X71821348Y-90322899D01*
X71803515Y-90351167D01*
X71784497Y-90381872D01*
X71764741Y-90414278D01*
X71744690Y-90447649D01*
X71724789Y-90481246D01*
X71705483Y-90514334D01*
X71687217Y-90546177D01*
X71670435Y-90576037D01*
X71655581Y-90603178D01*
X71650931Y-90611881D01*
X71618016Y-90676292D01*
X71584870Y-90745708D01*
X71551933Y-90819022D01*
X71519646Y-90895131D01*
X71488451Y-90972931D01*
X71458789Y-91051315D01*
X71431100Y-91129182D01*
X71405826Y-91205425D01*
X71383407Y-91278940D01*
X71380405Y-91289357D01*
X71377288Y-91299686D01*
X71375103Y-91304875D01*
X71373301Y-91305747D01*
X71371334Y-91303127D01*
X71371288Y-91303043D01*
X71367713Y-91295041D01*
X71362884Y-91282211D01*
X71357160Y-91265655D01*
X71350896Y-91246477D01*
X71344449Y-91225777D01*
X71338176Y-91204659D01*
X71332434Y-91184226D01*
X71330473Y-91176897D01*
X71318013Y-91125171D01*
X71308158Y-91073989D01*
X71300671Y-91021720D01*
X71295317Y-90966732D01*
X71291967Y-90909909D01*
X71291439Y-90864344D01*
X71293438Y-90814864D01*
X71297797Y-90763077D01*
X71304350Y-90710592D01*
X71312930Y-90659015D01*
X71322939Y-90611765D01*
X71343886Y-90536400D01*
X71370693Y-90461793D01*
X71403077Y-90388503D01*
X71440759Y-90317089D01*
X71483455Y-90248108D01*
X71530884Y-90182121D01*
X71554524Y-90152548D01*
X71572661Y-90131514D01*
X71593931Y-90108334D01*
X71617200Y-90084139D01*
X71641329Y-90060059D01*
X71665183Y-90037226D01*
X71687626Y-90016770D01*
X71707520Y-89999823D01*
X71710004Y-89997821D01*
X71777790Y-89947536D01*
X71848787Y-89902404D01*
X71922687Y-89862576D01*
X71999182Y-89828200D01*
X72077963Y-89799425D01*
X72158723Y-89776400D01*
X72177018Y-89772054D01*
X72194275Y-89768286D01*
X72212957Y-89764518D01*
X72232074Y-89760914D01*
X72250636Y-89757639D01*
X72267653Y-89754859D01*
X72282135Y-89752738D01*
X72293091Y-89751443D01*
X72299533Y-89751136D01*
X72300769Y-89751422D01*
G37*
%TD.AperFunction*%
%TA.AperFunction,EtchedComponent*%
G36*
X71462199Y-84852188D02*
G01*
X71464744Y-84853669D01*
X71465037Y-84853826D01*
X71471765Y-84857756D01*
X71482876Y-84864688D01*
X71497676Y-84874159D01*
X71515472Y-84885709D01*
X71535569Y-84898876D01*
X71557275Y-84913199D01*
X71579895Y-84928217D01*
X71602736Y-84943467D01*
X71625104Y-84958489D01*
X71646306Y-84972821D01*
X71665647Y-84986001D01*
X71682435Y-84997569D01*
X71695976Y-85007063D01*
X71703088Y-85012181D01*
X71818887Y-85100647D01*
X71930970Y-85193776D01*
X72039595Y-85291796D01*
X72145021Y-85394935D01*
X72198179Y-85450153D01*
X72295769Y-85558029D01*
X72389136Y-85670269D01*
X72478118Y-85786626D01*
X72562550Y-85906851D01*
X72642271Y-86030698D01*
X72717117Y-86157916D01*
X72786926Y-86288260D01*
X72851534Y-86421480D01*
X72883872Y-86493766D01*
X72897951Y-86527206D01*
X72913278Y-86565453D01*
X72929457Y-86607396D01*
X72946089Y-86651922D01*
X72962778Y-86697918D01*
X72979127Y-86744271D01*
X72994739Y-86789869D01*
X73009216Y-86833600D01*
X73022162Y-86874350D01*
X73033179Y-86911007D01*
X73034825Y-86916728D01*
X73040378Y-86936176D01*
X73051783Y-86934377D01*
X73066248Y-86932324D01*
X73085406Y-86929938D01*
X73107828Y-86927369D01*
X73132081Y-86924767D01*
X73156734Y-86922283D01*
X73180356Y-86920068D01*
X73201516Y-86918271D01*
X73213448Y-86917387D01*
X73249685Y-86915573D01*
X73290408Y-86914666D01*
X73334123Y-86914626D01*
X73379340Y-86915414D01*
X73424567Y-86916988D01*
X73468312Y-86919309D01*
X73509083Y-86922335D01*
X73545388Y-86926028D01*
X73548870Y-86926451D01*
X73623299Y-86937225D01*
X73698036Y-86951064D01*
X73771959Y-86967679D01*
X73843949Y-86986783D01*
X73912885Y-87008087D01*
X73977647Y-87031303D01*
X74014347Y-87046163D01*
X74077509Y-87074417D01*
X74143687Y-87106723D01*
X74211863Y-87142497D01*
X74281016Y-87181159D01*
X74350127Y-87222125D01*
X74418176Y-87264814D01*
X74484143Y-87308644D01*
X74528566Y-87339714D01*
X74547754Y-87353464D01*
X74565795Y-87366445D01*
X74581943Y-87378117D01*
X74595452Y-87387938D01*
X74605579Y-87395370D01*
X74611577Y-87399871D01*
X74612149Y-87400319D01*
X74618382Y-87404968D01*
X74622402Y-87407101D01*
X74624061Y-87406356D01*
X74623209Y-87402371D01*
X74619697Y-87394786D01*
X74613375Y-87383240D01*
X74604094Y-87367370D01*
X74591704Y-87346816D01*
X74586440Y-87338178D01*
X74578635Y-87325496D01*
X74571466Y-87314136D01*
X74564275Y-87303136D01*
X74556401Y-87291532D01*
X74547186Y-87278359D01*
X74535970Y-87262656D01*
X74522094Y-87243458D01*
X74513902Y-87232178D01*
X74470205Y-87176083D01*
X74421310Y-87120607D01*
X74368157Y-87066660D01*
X74311687Y-87015151D01*
X74252839Y-86966990D01*
X74198694Y-86927308D01*
X74180800Y-86915230D01*
X74160333Y-86901934D01*
X74138554Y-86888192D01*
X74116722Y-86874779D01*
X74096099Y-86862468D01*
X74077943Y-86852033D01*
X74063515Y-86844246D01*
X74062738Y-86843851D01*
X74055053Y-86839232D01*
X74050366Y-86835007D01*
X74049692Y-86833464D01*
X74050478Y-86825521D01*
X74052650Y-86812625D01*
X74055976Y-86795752D01*
X74060226Y-86775878D01*
X74065168Y-86753979D01*
X74070571Y-86731030D01*
X74076203Y-86708008D01*
X74081835Y-86685887D01*
X74087233Y-86665644D01*
X74092168Y-86648255D01*
X74096408Y-86634695D01*
X74097595Y-86631283D01*
X74105734Y-86610329D01*
X74116300Y-86585547D01*
X74128597Y-86558399D01*
X74141927Y-86530346D01*
X74155592Y-86502851D01*
X74168895Y-86477376D01*
X74181137Y-86455382D01*
X74183252Y-86451774D01*
X74220568Y-86391882D01*
X74261031Y-86333084D01*
X74304915Y-86275097D01*
X74352497Y-86217637D01*
X74404053Y-86160421D01*
X74459857Y-86103166D01*
X74520186Y-86045589D01*
X74585316Y-85987407D01*
X74655521Y-85928337D01*
X74731079Y-85868096D01*
X74810113Y-85807999D01*
X74827743Y-85795000D01*
X74848997Y-85779536D01*
X74873561Y-85761827D01*
X74901123Y-85742089D01*
X74931369Y-85720540D01*
X74963987Y-85697398D01*
X74998663Y-85672880D01*
X75035085Y-85647203D01*
X75072938Y-85620586D01*
X75111910Y-85593245D01*
X75151689Y-85565399D01*
X75191960Y-85537264D01*
X75232410Y-85509059D01*
X75272727Y-85481001D01*
X75312598Y-85453308D01*
X75351709Y-85426197D01*
X75389747Y-85399885D01*
X75426400Y-85374591D01*
X75461353Y-85350531D01*
X75494295Y-85327924D01*
X75524911Y-85306987D01*
X75552889Y-85287937D01*
X75577916Y-85270992D01*
X75599678Y-85256370D01*
X75617863Y-85244288D01*
X75632157Y-85234963D01*
X75642248Y-85228614D01*
X75647821Y-85225458D01*
X75648869Y-85225193D01*
X75650417Y-85231276D01*
X75652795Y-85242413D01*
X75655819Y-85257597D01*
X75659305Y-85275821D01*
X75663067Y-85296078D01*
X75666921Y-85317362D01*
X75670681Y-85338665D01*
X75674165Y-85358981D01*
X75677185Y-85377304D01*
X75679433Y-85391777D01*
X75687179Y-85447074D01*
X75693484Y-85499479D01*
X75698447Y-85550418D01*
X75702167Y-85601318D01*
X75704743Y-85653607D01*
X75706274Y-85708710D01*
X75706860Y-85768056D01*
X75706867Y-85786587D01*
X75706605Y-85833633D01*
X75705925Y-85875887D01*
X75704755Y-85914693D01*
X75703021Y-85951396D01*
X75700650Y-85987339D01*
X75697569Y-86023866D01*
X75693706Y-86062321D01*
X75690182Y-86093833D01*
X75672661Y-86219382D01*
X75649320Y-86344312D01*
X75620298Y-86468227D01*
X75585730Y-86590733D01*
X75545755Y-86711436D01*
X75500510Y-86829940D01*
X75450133Y-86945852D01*
X75394760Y-87058776D01*
X75334528Y-87168318D01*
X75291376Y-87239859D01*
X75261918Y-87285623D01*
X75229565Y-87333531D01*
X75195347Y-87382157D01*
X75160294Y-87430076D01*
X75125439Y-87475862D01*
X75091810Y-87518090D01*
X75079257Y-87533279D01*
X75068696Y-87546009D01*
X75059682Y-87557070D01*
X75052888Y-87565618D01*
X75048992Y-87570808D01*
X75048326Y-87571945D01*
X75049848Y-87575334D01*
X75054282Y-87583383D01*
X75061294Y-87595541D01*
X75070545Y-87611253D01*
X75081699Y-87629966D01*
X75094419Y-87651127D01*
X75108370Y-87674182D01*
X75123212Y-87698577D01*
X75138611Y-87723759D01*
X75154230Y-87749175D01*
X75169731Y-87774270D01*
X75184777Y-87798492D01*
X75199033Y-87821286D01*
X75212161Y-87842100D01*
X75223426Y-87859760D01*
X75236728Y-87880432D01*
X75248678Y-87898909D01*
X75259703Y-87915818D01*
X75270235Y-87931785D01*
X75280702Y-87947435D01*
X75291534Y-87963395D01*
X75303160Y-87980293D01*
X75316009Y-87998752D01*
X75330513Y-88019402D01*
X75347098Y-88042866D01*
X75366197Y-88069772D01*
X75388236Y-88100747D01*
X75400022Y-88117293D01*
X75452731Y-88191279D01*
X75234349Y-88402428D01*
X75203621Y-88432126D01*
X75174109Y-88460623D01*
X75146117Y-88487629D01*
X75119948Y-88512850D01*
X75095907Y-88535996D01*
X75074296Y-88556775D01*
X75055419Y-88574895D01*
X75039580Y-88590063D01*
X75027083Y-88601989D01*
X75018230Y-88610381D01*
X75013326Y-88614946D01*
X75012429Y-88615716D01*
X75011722Y-88618114D01*
X75011695Y-88624289D01*
X75012383Y-88634596D01*
X75013824Y-88649387D01*
X75016053Y-88669013D01*
X75019107Y-88693830D01*
X75023021Y-88724188D01*
X75025387Y-88742120D01*
X75028992Y-88769119D01*
X75032389Y-88794255D01*
X75035485Y-88816868D01*
X75038188Y-88836296D01*
X75040406Y-88851877D01*
X75042045Y-88862952D01*
X75043015Y-88868860D01*
X75043194Y-88869627D01*
X75045676Y-88871924D01*
X75052637Y-88877908D01*
X75063816Y-88887360D01*
X75078949Y-88900062D01*
X75097771Y-88915794D01*
X75120021Y-88934339D01*
X75145434Y-88955476D01*
X75173747Y-88978987D01*
X75204697Y-89004654D01*
X75238020Y-89032257D01*
X75273453Y-89061577D01*
X75310734Y-89092396D01*
X75349597Y-89124495D01*
X75389780Y-89157655D01*
X75392786Y-89160134D01*
X75444730Y-89203005D01*
X75492076Y-89242138D01*
X75534991Y-89277675D01*
X75573644Y-89309758D01*
X75608201Y-89338528D01*
X75638831Y-89364126D01*
X75665702Y-89386694D01*
X75688980Y-89406373D01*
X75708834Y-89423304D01*
X75725432Y-89437630D01*
X75738941Y-89449490D01*
X75749529Y-89459028D01*
X75757363Y-89466384D01*
X75762612Y-89471699D01*
X75763433Y-89472604D01*
X75785799Y-89497810D01*
X75763433Y-89490170D01*
X75743868Y-89484349D01*
X75719912Y-89478583D01*
X75693310Y-89473213D01*
X75665808Y-89468580D01*
X75639153Y-89465025D01*
X75629633Y-89464031D01*
X75593106Y-89462186D01*
X75553870Y-89463108D01*
X75513749Y-89466599D01*
X75474568Y-89472461D01*
X75438152Y-89480496D01*
X75415335Y-89487290D01*
X75368599Y-89505763D01*
X75322239Y-89529248D01*
X75277997Y-89556768D01*
X75238454Y-89586640D01*
X75208556Y-89614704D01*
X75179786Y-89647733D01*
X75153045Y-89684554D01*
X75129236Y-89723991D01*
X75120913Y-89739877D01*
X75103969Y-89773665D01*
X75072258Y-89778839D01*
X75049973Y-89782142D01*
X75027366Y-89784898D01*
X75005710Y-89787001D01*
X74986278Y-89788343D01*
X74970342Y-89788818D01*
X74959175Y-89788319D01*
X74959127Y-89788314D01*
X74908345Y-89780508D01*
X74861747Y-89769963D01*
X74817815Y-89756237D01*
X74775033Y-89738884D01*
X74751180Y-89727501D01*
X74739343Y-89721312D01*
X74726982Y-89714300D01*
X74713740Y-89706200D01*
X74699257Y-89696748D01*
X74683176Y-89685678D01*
X74665137Y-89672726D01*
X74644782Y-89657627D01*
X74621753Y-89640116D01*
X74595690Y-89619928D01*
X74566237Y-89596799D01*
X74533034Y-89570463D01*
X74495722Y-89540656D01*
X74465998Y-89516805D01*
X74437069Y-89493650D01*
X74412230Y-89474011D01*
X74390865Y-89457457D01*
X74372356Y-89443557D01*
X74356085Y-89431878D01*
X74341433Y-89421990D01*
X74327785Y-89413462D01*
X74314521Y-89405860D01*
X74301023Y-89398754D01*
X74287459Y-89392088D01*
X74256925Y-89377906D01*
X74230001Y-89366458D01*
X74205105Y-89357190D01*
X74180655Y-89349551D01*
X74155071Y-89342986D01*
X74133763Y-89338349D01*
X74116119Y-89334907D01*
X74101009Y-89332449D01*
X74086611Y-89330804D01*
X74071107Y-89329798D01*
X74052675Y-89329260D01*
X74035444Y-89329057D01*
X74014261Y-89329000D01*
X73997401Y-89329296D01*
X73983046Y-89330101D01*
X73969379Y-89331571D01*
X73954581Y-89333862D01*
X73936834Y-89337133D01*
X73932927Y-89337888D01*
X73906014Y-89343881D01*
X73877881Y-89351503D01*
X73850234Y-89360206D01*
X73824779Y-89369443D01*
X73803223Y-89378664D01*
X73797926Y-89381266D01*
X73790253Y-89385033D01*
X73785167Y-89387254D01*
X73784272Y-89387507D01*
X73784854Y-89384712D01*
X73787178Y-89376794D01*
X73791019Y-89364454D01*
X73796157Y-89348391D01*
X73802368Y-89329305D01*
X73809430Y-89307897D01*
X73812980Y-89297231D01*
X73843110Y-89206955D01*
X73822728Y-89205009D01*
X73791679Y-89202432D01*
X73755366Y-89200083D01*
X73714669Y-89197981D01*
X73670464Y-89196144D01*
X73623630Y-89194590D01*
X73575046Y-89193339D01*
X73525589Y-89192408D01*
X73476138Y-89191817D01*
X73427570Y-89191584D01*
X73380763Y-89191726D01*
X73336597Y-89192263D01*
X73295949Y-89193214D01*
X73283102Y-89193634D01*
X73163315Y-89199752D01*
X73045141Y-89209523D01*
X72929029Y-89222864D01*
X72815426Y-89239688D01*
X72704779Y-89259910D01*
X72597536Y-89283444D01*
X72494144Y-89310205D01*
X72395051Y-89340108D01*
X72300703Y-89373067D01*
X72258669Y-89389371D01*
X72247159Y-89393808D01*
X72237988Y-89397010D01*
X72232496Y-89398525D01*
X72231552Y-89398514D01*
X72233018Y-89396031D01*
X72238056Y-89390740D01*
X72245146Y-89384174D01*
X72288717Y-89342437D01*
X72328383Y-89297868D01*
X72363640Y-89251161D01*
X72393983Y-89203012D01*
X72418905Y-89154114D01*
X72427712Y-89133325D01*
X72433448Y-89118072D01*
X72439367Y-89100889D01*
X72445189Y-89082768D01*
X72450632Y-89064701D01*
X72455416Y-89047678D01*
X72459262Y-89032690D01*
X72461886Y-89020729D01*
X72463011Y-89012787D01*
X72462634Y-89009984D01*
X72459174Y-89010457D01*
X72450888Y-89013285D01*
X72438485Y-89018156D01*
X72422671Y-89024756D01*
X72404157Y-89032774D01*
X72383651Y-89041894D01*
X72361862Y-89051805D01*
X72339497Y-89062193D01*
X72317265Y-89072745D01*
X72295876Y-89083148D01*
X72286090Y-89088010D01*
X72204395Y-89131307D01*
X72127798Y-89176980D01*
X72055515Y-89225624D01*
X71986761Y-89277836D01*
X71920753Y-89334211D01*
X71856707Y-89395345D01*
X71793838Y-89461833D01*
X71792983Y-89462782D01*
X71734203Y-89530421D01*
X71678408Y-89599580D01*
X71625338Y-89670711D01*
X71574732Y-89744264D01*
X71526331Y-89820691D01*
X71479872Y-89900444D01*
X71435097Y-89983974D01*
X71391744Y-90071732D01*
X71349553Y-90164170D01*
X71308264Y-90261739D01*
X71267616Y-90364891D01*
X71258452Y-90389128D01*
X71237244Y-90446980D01*
X71215752Y-90508157D01*
X71194339Y-90571504D01*
X71173370Y-90635866D01*
X71153208Y-90700090D01*
X71134218Y-90763023D01*
X71116764Y-90823509D01*
X71101210Y-90880395D01*
X71091229Y-90919126D01*
X71083810Y-90948986D01*
X71077375Y-90975355D01*
X71071621Y-90999585D01*
X71066245Y-91023023D01*
X71060943Y-91047020D01*
X71055412Y-91072925D01*
X71049349Y-91102087D01*
X71042449Y-91135857D01*
X71042015Y-91137994D01*
X71024403Y-91224745D01*
X71017837Y-91208660D01*
X71014772Y-91200867D01*
X71010029Y-91188460D01*
X71004044Y-91172593D01*
X70997252Y-91154421D01*
X70990089Y-91135101D01*
X70988623Y-91131126D01*
X70948022Y-91012850D01*
X70912983Y-90893569D01*
X70883523Y-90773550D01*
X70859660Y-90653063D01*
X70841412Y-90532376D01*
X70828798Y-90411758D01*
X70821834Y-90291476D01*
X70820539Y-90171801D01*
X70824931Y-90052999D01*
X70835029Y-89935340D01*
X70850848Y-89819093D01*
X70872409Y-89704526D01*
X70888572Y-89634839D01*
X70910755Y-89553053D01*
X70937068Y-89468747D01*
X70966963Y-89383387D01*
X70999889Y-89298437D01*
X71035299Y-89215362D01*
X71072644Y-89135625D01*
X71084947Y-89110985D01*
X71117927Y-89049075D01*
X71155053Y-88984915D01*
X71195471Y-88919823D01*
X71238324Y-88855117D01*
X71274352Y-88804032D01*
X72577973Y-88804032D01*
X72580586Y-88803522D01*
X72587845Y-88800677D01*
X72598884Y-88795873D01*
X72612835Y-88789489D01*
X72627901Y-88782348D01*
X72696645Y-88752160D01*
X72767278Y-88726736D01*
X72839084Y-88706230D01*
X72911345Y-88690797D01*
X72983346Y-88680594D01*
X73054369Y-88675776D01*
X73117189Y-88676186D01*
X73137404Y-88677142D01*
X73152264Y-88678056D01*
X73162559Y-88679043D01*
X73169077Y-88680218D01*
X73172607Y-88681695D01*
X73173937Y-88683591D01*
X73174030Y-88684474D01*
X73175496Y-88689708D01*
X73179511Y-88699126D01*
X73185498Y-88711618D01*
X73192880Y-88726077D01*
X73201082Y-88741395D01*
X73209526Y-88756464D01*
X73217636Y-88770176D01*
X73223171Y-88778931D01*
X73257328Y-88825453D01*
X73295543Y-88867391D01*
X73337703Y-88904675D01*
X73383692Y-88937232D01*
X73433398Y-88964992D01*
X73486707Y-88987883D01*
X73543505Y-89005834D01*
X73603678Y-89018773D01*
X73605710Y-89019112D01*
X73624468Y-89021378D01*
X73647763Y-89022903D01*
X73674030Y-89023698D01*
X73701709Y-89023774D01*
X73729236Y-89023141D01*
X73755048Y-89021810D01*
X73777583Y-89019794D01*
X73791594Y-89017802D01*
X73854409Y-89003912D01*
X73913931Y-88984946D01*
X73970587Y-88960720D01*
X74024804Y-88931050D01*
X74077010Y-88895752D01*
X74080766Y-88892940D01*
X74092500Y-88884343D01*
X74100572Y-88879168D01*
X74106028Y-88876886D01*
X74109911Y-88876970D01*
X74111242Y-88877539D01*
X74116503Y-88878673D01*
X74126513Y-88878824D01*
X74141702Y-88877980D01*
X74162500Y-88876128D01*
X74163710Y-88876007D01*
X74235589Y-88871831D01*
X74306852Y-88873740D01*
X74377281Y-88881696D01*
X74446658Y-88895658D01*
X74514764Y-88915588D01*
X74581381Y-88941447D01*
X74614792Y-88956945D01*
X74627461Y-88963018D01*
X74637971Y-88967794D01*
X74645193Y-88970779D01*
X74647982Y-88971503D01*
X74647141Y-88968437D01*
X74644166Y-88960022D01*
X74639195Y-88946622D01*
X74632369Y-88928598D01*
X74623825Y-88906311D01*
X74613702Y-88880122D01*
X74602141Y-88850394D01*
X74589280Y-88817488D01*
X74575258Y-88781765D01*
X74563534Y-88751997D01*
X74561797Y-88750434D01*
X74557510Y-88749454D01*
X74549850Y-88749026D01*
X74537993Y-88749116D01*
X74521115Y-88749691D01*
X74513953Y-88749997D01*
X74459271Y-88750633D01*
X74400663Y-88748046D01*
X74339311Y-88742432D01*
X74276397Y-88733986D01*
X74213101Y-88722902D01*
X74150606Y-88709377D01*
X74090093Y-88693604D01*
X74032743Y-88675780D01*
X74005129Y-88665975D01*
X73942083Y-88640045D01*
X73877177Y-88608464D01*
X73810648Y-88571355D01*
X73742733Y-88528846D01*
X73732147Y-88521814D01*
X73710822Y-88507361D01*
X73690151Y-88492942D01*
X73669585Y-88478126D01*
X73648573Y-88462481D01*
X73626568Y-88445575D01*
X73603019Y-88426979D01*
X73577378Y-88406260D01*
X73549095Y-88382987D01*
X73517620Y-88356729D01*
X73482405Y-88327054D01*
X73461305Y-88309173D01*
X73415334Y-88271389D01*
X73372123Y-88238538D01*
X73331153Y-88210353D01*
X73291904Y-88186571D01*
X73253857Y-88166927D01*
X73216494Y-88151155D01*
X73179294Y-88138991D01*
X73141739Y-88130171D01*
X73103310Y-88124428D01*
X73098116Y-88123883D01*
X73055892Y-88122661D01*
X73012931Y-88127156D01*
X72970061Y-88137141D01*
X72928106Y-88152391D01*
X72887893Y-88172678D01*
X72863427Y-88188218D01*
X72851673Y-88196329D01*
X72843303Y-88202440D01*
X72838687Y-88206861D01*
X72838196Y-88209901D01*
X72842200Y-88211868D01*
X72851069Y-88213072D01*
X72865176Y-88213822D01*
X72884889Y-88214427D01*
X72895209Y-88214721D01*
X72942322Y-88217311D01*
X72984866Y-88222345D01*
X73024012Y-88230067D01*
X73060930Y-88240722D01*
X73096788Y-88254554D01*
X73106409Y-88258850D01*
X73118693Y-88264783D01*
X73132089Y-88271726D01*
X73145490Y-88279046D01*
X73157792Y-88286110D01*
X73167891Y-88292282D01*
X73174681Y-88296930D01*
X73177060Y-88299381D01*
X73176308Y-88303657D01*
X73175185Y-88308233D01*
X73172673Y-88313010D01*
X73168373Y-88312481D01*
X73168314Y-88312451D01*
X73161615Y-88309817D01*
X73150415Y-88306289D01*
X73136220Y-88302271D01*
X73120536Y-88298163D01*
X73104869Y-88294369D01*
X73090725Y-88291289D01*
X73084929Y-88290185D01*
X73067854Y-88288023D01*
X73046570Y-88286662D01*
X73022764Y-88286084D01*
X72998120Y-88286275D01*
X72974326Y-88287218D01*
X72953066Y-88288896D01*
X72936027Y-88291295D01*
X72934378Y-88291624D01*
X72884417Y-88305029D01*
X72836618Y-88323900D01*
X72791465Y-88347905D01*
X72749444Y-88376710D01*
X72711039Y-88409984D01*
X72676736Y-88447395D01*
X72647217Y-88488300D01*
X72640663Y-88499471D01*
X72638120Y-88506150D01*
X72639595Y-88508503D01*
X72645098Y-88506699D01*
X72647966Y-88505122D01*
X72659058Y-88499417D01*
X72674710Y-88492418D01*
X72693610Y-88484647D01*
X72714445Y-88476622D01*
X72735903Y-88468862D01*
X72756673Y-88461887D01*
X72759410Y-88461016D01*
X72798233Y-88450077D01*
X72840382Y-88440543D01*
X72883093Y-88432978D01*
X72917840Y-88428514D01*
X72931442Y-88427513D01*
X72948341Y-88426870D01*
X72967382Y-88426565D01*
X72987407Y-88426580D01*
X73007260Y-88426894D01*
X73025784Y-88427488D01*
X73041824Y-88428342D01*
X73054221Y-88429436D01*
X73061820Y-88430751D01*
X73062520Y-88430983D01*
X73063852Y-88432222D01*
X73062198Y-88434108D01*
X73057012Y-88436889D01*
X73047747Y-88440814D01*
X73033855Y-88446131D01*
X73014790Y-88453089D01*
X73010288Y-88454707D01*
X72987734Y-88462794D01*
X72970315Y-88469051D01*
X72957383Y-88473726D01*
X72948293Y-88477069D01*
X72942397Y-88479328D01*
X72939047Y-88480754D01*
X72937597Y-88481594D01*
X72937399Y-88482098D01*
X72937807Y-88482515D01*
X72937876Y-88482582D01*
X72941135Y-88483283D01*
X72949714Y-88484637D01*
X72962837Y-88486533D01*
X72979727Y-88488864D01*
X72999606Y-88491519D01*
X73021698Y-88494391D01*
X73026614Y-88495020D01*
X73049048Y-88497907D01*
X73069412Y-88500575D01*
X73086932Y-88502918D01*
X73100839Y-88504832D01*
X73110359Y-88506212D01*
X73114721Y-88506952D01*
X73114912Y-88507018D01*
X73112382Y-88507506D01*
X73104877Y-88508213D01*
X73093554Y-88509046D01*
X73079600Y-88509908D01*
X73054876Y-88512077D01*
X73026652Y-88515806D01*
X72997255Y-88520702D01*
X72969013Y-88526374D01*
X72944253Y-88532432D01*
X72942059Y-88533043D01*
X72912752Y-88542584D01*
X72880497Y-88555262D01*
X72847047Y-88570257D01*
X72814151Y-88586747D01*
X72783564Y-88603910D01*
X72762321Y-88617313D01*
X72717594Y-88650361D01*
X72674168Y-88688415D01*
X72633299Y-88730338D01*
X72617516Y-88748449D01*
X72609069Y-88758863D01*
X72600261Y-88770363D01*
X72591918Y-88781785D01*
X72584871Y-88791962D01*
X72579949Y-88799731D01*
X72577979Y-88803925D01*
X72577973Y-88804032D01*
X71274352Y-88804032D01*
X71282756Y-88792116D01*
X71327911Y-88732138D01*
X71345154Y-88710321D01*
X71353059Y-88699982D01*
X71358919Y-88691380D01*
X71362025Y-88685616D01*
X71362186Y-88683861D01*
X71358422Y-88682779D01*
X71349275Y-88681076D01*
X71335464Y-88678848D01*
X71317711Y-88676189D01*
X71296734Y-88673195D01*
X71273254Y-88669961D01*
X71247991Y-88666582D01*
X71221664Y-88663154D01*
X71194994Y-88659770D01*
X71168701Y-88656527D01*
X71143504Y-88653519D01*
X71120123Y-88650842D01*
X71099279Y-88648591D01*
X71083223Y-88647002D01*
X71047695Y-88644317D01*
X71007688Y-88642360D01*
X70964827Y-88641141D01*
X70920735Y-88640671D01*
X70877037Y-88640961D01*
X70835358Y-88642020D01*
X70797321Y-88643860D01*
X70780586Y-88645043D01*
X70763104Y-88646372D01*
X70747861Y-88647414D01*
X70735864Y-88648108D01*
X70728119Y-88648396D01*
X70725628Y-88648274D01*
X70727125Y-88645745D01*
X70732172Y-88639616D01*
X70740030Y-88630687D01*
X70749960Y-88619759D01*
X70761223Y-88607633D01*
X70773080Y-88595108D01*
X70784792Y-88582985D01*
X70795620Y-88572065D01*
X70799553Y-88568199D01*
X70837521Y-88532824D01*
X70879737Y-88496331D01*
X70924735Y-88459862D01*
X70971048Y-88424561D01*
X71017211Y-88391571D01*
X71061756Y-88362034D01*
X71073403Y-88354745D01*
X71136854Y-88318032D01*
X71204261Y-88283586D01*
X71274433Y-88251875D01*
X71346179Y-88223368D01*
X71418309Y-88198532D01*
X71489631Y-88177838D01*
X71558956Y-88161753D01*
X71568671Y-88159851D01*
X71581353Y-88157292D01*
X71591934Y-88154909D01*
X71598808Y-88153074D01*
X71600278Y-88152519D01*
X71599696Y-88149736D01*
X71594982Y-88143440D01*
X71586652Y-88134130D01*
X71575228Y-88122308D01*
X71561227Y-88108473D01*
X71545168Y-88093125D01*
X71527572Y-88076766D01*
X71508956Y-88059896D01*
X71489841Y-88043015D01*
X71470744Y-88026623D01*
X71462671Y-88019853D01*
X71431137Y-87994431D01*
X71396532Y-87967977D01*
X71360385Y-87941586D01*
X71324228Y-87916354D01*
X71289590Y-87893377D01*
X71261812Y-87876032D01*
X71231961Y-87858457D01*
X71203485Y-87842617D01*
X71174593Y-87827580D01*
X71143498Y-87812416D01*
X71108410Y-87796196D01*
X71107816Y-87795927D01*
X71090834Y-87788220D01*
X71075875Y-87781386D01*
X71063800Y-87775823D01*
X71055472Y-87771929D01*
X71051752Y-87770100D01*
X71051644Y-87770028D01*
X71053926Y-87768627D01*
X71061265Y-87765627D01*
X71072864Y-87761299D01*
X71087924Y-87755914D01*
X71105650Y-87749742D01*
X71125243Y-87743054D01*
X71145907Y-87736121D01*
X71166845Y-87729213D01*
X71187259Y-87722600D01*
X71206352Y-87716554D01*
X71223327Y-87711344D01*
X71232410Y-87708662D01*
X71326127Y-87684564D01*
X71422224Y-87665736D01*
X71519696Y-87652319D01*
X71617534Y-87644454D01*
X71703091Y-87642240D01*
X71723075Y-87642161D01*
X71740832Y-87641928D01*
X71755498Y-87641568D01*
X71766212Y-87641104D01*
X71772110Y-87640560D01*
X71772990Y-87640242D01*
X71771205Y-87636535D01*
X71768788Y-87633376D01*
X71764162Y-87627410D01*
X71756744Y-87617089D01*
X71747079Y-87603222D01*
X71735713Y-87586613D01*
X71723190Y-87568070D01*
X71710055Y-87548400D01*
X71696852Y-87528407D01*
X71684127Y-87508900D01*
X71672883Y-87491405D01*
X71606366Y-87381750D01*
X71545445Y-87270345D01*
X71489914Y-87156731D01*
X71439565Y-87040452D01*
X71394193Y-86921050D01*
X71353591Y-86798069D01*
X71341008Y-86755947D01*
X71306917Y-86628679D01*
X71278908Y-86501871D01*
X71256956Y-86375279D01*
X71241037Y-86248656D01*
X71231127Y-86121760D01*
X71227204Y-85994344D01*
X71229243Y-85866163D01*
X71237221Y-85736974D01*
X71239785Y-85708240D01*
X71254703Y-85581399D01*
X71275539Y-85454218D01*
X71302145Y-85327325D01*
X71334372Y-85201350D01*
X71372071Y-85076923D01*
X71415093Y-84954670D01*
X71423584Y-84932444D01*
X71432900Y-84908325D01*
X71440254Y-84889344D01*
X71445948Y-84874929D01*
X71450285Y-84864505D01*
X71453568Y-84857499D01*
X71456098Y-84853339D01*
X71458178Y-84851449D01*
X71460111Y-84851256D01*
X71462199Y-84852188D01*
G37*
%TD.AperFunction*%
%TA.AperFunction,EtchedComponent*%
G36*
X75579208Y-88477668D02*
G01*
X75576773Y-88483602D01*
X75571992Y-88493533D01*
X75564635Y-88508140D01*
X75563366Y-88510636D01*
X75543020Y-88549222D01*
X75519969Y-88590483D01*
X75495417Y-88632350D01*
X75470565Y-88672757D01*
X75454940Y-88697074D01*
X75446899Y-88709035D01*
X75436665Y-88723773D01*
X75424749Y-88740598D01*
X75411660Y-88758819D01*
X75397910Y-88777745D01*
X75384009Y-88796686D01*
X75370466Y-88814949D01*
X75357793Y-88831845D01*
X75346500Y-88846682D01*
X75337097Y-88858770D01*
X75330095Y-88867417D01*
X75326004Y-88871933D01*
X75325464Y-88872355D01*
X75322636Y-88870791D01*
X75315689Y-88865736D01*
X75305208Y-88857652D01*
X75291779Y-88847002D01*
X75275988Y-88834246D01*
X75258420Y-88819846D01*
X75249474Y-88812441D01*
X75231110Y-88797172D01*
X75214161Y-88783043D01*
X75199238Y-88770565D01*
X75186949Y-88760247D01*
X75177901Y-88752600D01*
X75172705Y-88748135D01*
X75171787Y-88747302D01*
X75171866Y-88746020D01*
X75173892Y-88743622D01*
X75178158Y-88739909D01*
X75184955Y-88734678D01*
X75194574Y-88727731D01*
X75207308Y-88718866D01*
X75223448Y-88707884D01*
X75243286Y-88694584D01*
X75267113Y-88678765D01*
X75295221Y-88660227D01*
X75327902Y-88638770D01*
X75365447Y-88614194D01*
X75366888Y-88613251D01*
X75398647Y-88592483D01*
X75429066Y-88572583D01*
X75457731Y-88553824D01*
X75484226Y-88536477D01*
X75508136Y-88520815D01*
X75529048Y-88507108D01*
X75546546Y-88495629D01*
X75560215Y-88486650D01*
X75569641Y-88480441D01*
X75574409Y-88477276D01*
X75574728Y-88477059D01*
X75577956Y-88475075D01*
X75579525Y-88475052D01*
X75579208Y-88477668D01*
G37*
%TD.AperFunction*%
%TA.AperFunction,EtchedComponent*%
G36*
X73359180Y-88434246D02*
G01*
X73365969Y-88438899D01*
X73376089Y-88446273D01*
X73388796Y-88455823D01*
X73403343Y-88467005D01*
X73406487Y-88469450D01*
X73459717Y-88510400D01*
X73509636Y-88547592D01*
X73557234Y-88581661D01*
X73603501Y-88613238D01*
X73649426Y-88642956D01*
X73695999Y-88671447D01*
X73744210Y-88699344D01*
X73795049Y-88727279D01*
X73849504Y-88755885D01*
X73875393Y-88769115D01*
X73911569Y-88787462D01*
X73899671Y-88795336D01*
X73884317Y-88804524D01*
X73865242Y-88814506D01*
X73844597Y-88824268D01*
X73824535Y-88832799D01*
X73807209Y-88839087D01*
X73805541Y-88839605D01*
X73766067Y-88849270D01*
X73726024Y-88854692D01*
X73687007Y-88855728D01*
X73654869Y-88852914D01*
X73632681Y-88848547D01*
X73607703Y-88841911D01*
X73582483Y-88833777D01*
X73559572Y-88824917D01*
X73553552Y-88822243D01*
X73515393Y-88801957D01*
X73481616Y-88778122D01*
X73451116Y-88749951D01*
X73449349Y-88748086D01*
X73418202Y-88711162D01*
X73392973Y-88672753D01*
X73373559Y-88632604D01*
X73359857Y-88590461D01*
X73351765Y-88546070D01*
X73349178Y-88500112D01*
X73349525Y-88485200D01*
X73350451Y-88469911D01*
X73351806Y-88455627D01*
X73353440Y-88443730D01*
X73355203Y-88435601D01*
X73356467Y-88432859D01*
X73359180Y-88434246D01*
G37*
%TD.AperFunction*%
%TD*%
D10*
%TO.P,D14,1,K*%
%TO.N,OUT_2*%
X89216000Y-86360000D03*
%TO.P,D14,2,A*%
%TO.N,Net-(D14-A)*%
X90616000Y-86360000D03*
%TD*%
%TO.P,D16,1,K*%
%TO.N,OUT_4*%
X112584000Y-86360000D03*
%TO.P,D16,2,A*%
%TO.N,Net-(D16-A)*%
X113984000Y-86360000D03*
%TD*%
%TO.P,D5,1,K*%
%TO.N,OUT_1*%
X78040000Y-66040000D03*
%TO.P,D5,2,A*%
%TO.N,Net-(D5-A)*%
X79440000Y-66040000D03*
%TD*%
%TO.P,D8,1,K*%
%TO.N,OUT_4*%
X112584000Y-66040000D03*
%TO.P,D8,2,A*%
%TO.N,Net-(D8-A)*%
X113984000Y-66040000D03*
%TD*%
%TO.P,D12,1,K*%
%TO.N,OUT_4*%
X112584000Y-76200000D03*
%TO.P,D12,2,A*%
%TO.N,Net-(D12-A)*%
X113984000Y-76200000D03*
%TD*%
D11*
%TO.P,SW10,1,1*%
%TO.N,IN_C*%
X83630000Y-68870000D03*
X91630000Y-68870000D03*
%TO.P,SW10,2,2*%
%TO.N,Net-(D10-A)*%
X83630000Y-73370000D03*
X91630000Y-73370000D03*
%TD*%
D10*
%TO.P,D10,1,K*%
%TO.N,OUT_2*%
X89216000Y-76200000D03*
%TO.P,D10,2,A*%
%TO.N,Net-(D10-A)*%
X90616000Y-76200000D03*
%TD*%
%TO.P,D7,1,K*%
%TO.N,OUT_3*%
X100900000Y-66040000D03*
%TO.P,D7,2,A*%
%TO.N,Net-(D7-A)*%
X102300000Y-66040000D03*
%TD*%
D11*
%TO.P,SW3,1,1*%
%TO.N,IN_A*%
X95060000Y-48550000D03*
X103060000Y-48550000D03*
%TO.P,SW3,2,2*%
%TO.N,Net-(D3-A)*%
X95060000Y-53050000D03*
X103060000Y-53050000D03*
%TD*%
%TO.P,SW8,1,1*%
%TO.N,IN_B*%
X106490000Y-58710000D03*
X114490000Y-58710000D03*
%TO.P,SW8,2,2*%
%TO.N,Net-(D8-A)*%
X106490000Y-63210000D03*
X114490000Y-63210000D03*
%TD*%
%TO.P,SW15,1,1*%
%TO.N,IN_D*%
X95060000Y-79030000D03*
X103060000Y-79030000D03*
%TO.P,SW15,2,2*%
%TO.N,Net-(D15-A)*%
X95060000Y-83530000D03*
X103060000Y-83530000D03*
%TD*%
%TO.P,SW14,1,1*%
%TO.N,IN_D*%
X83630000Y-79030000D03*
X91630000Y-79030000D03*
%TO.P,SW14,2,2*%
%TO.N,Net-(D14-A)*%
X83630000Y-83530000D03*
X91630000Y-83530000D03*
%TD*%
%TO.P,SW9,1,1*%
%TO.N,IN_C*%
X72200000Y-68870000D03*
X80200000Y-68870000D03*
%TO.P,SW9,2,2*%
%TO.N,Net-(D9-A)*%
X72200000Y-73370000D03*
X80200000Y-73370000D03*
%TD*%
D10*
%TO.P,D11,1,K*%
%TO.N,OUT_3*%
X100900000Y-76200000D03*
%TO.P,D11,2,A*%
%TO.N,Net-(D11-A)*%
X102300000Y-76200000D03*
%TD*%
D11*
%TO.P,SW4,1,1*%
%TO.N,IN_A*%
X106490000Y-48550000D03*
X114490000Y-48550000D03*
%TO.P,SW4,2,2*%
%TO.N,Net-(D4-A)*%
X106490000Y-53050000D03*
X114490000Y-53050000D03*
%TD*%
%TO.P,SW11,1,1*%
%TO.N,IN_C*%
X95060000Y-68870000D03*
X103060000Y-68870000D03*
%TO.P,SW11,2,2*%
%TO.N,Net-(D11-A)*%
X95060000Y-73370000D03*
X103060000Y-73370000D03*
%TD*%
D10*
%TO.P,D6,1,K*%
%TO.N,OUT_2*%
X89216000Y-66040000D03*
%TO.P,D6,2,A*%
%TO.N,Net-(D6-A)*%
X90616000Y-66040000D03*
%TD*%
D11*
%TO.P,SW7,1,1*%
%TO.N,IN_B*%
X95060000Y-58710000D03*
X103060000Y-58710000D03*
%TO.P,SW7,2,2*%
%TO.N,Net-(D7-A)*%
X95060000Y-63210000D03*
X103060000Y-63210000D03*
%TD*%
D10*
%TO.P,D13,1,K*%
%TO.N,OUT_1*%
X78040000Y-86360000D03*
%TO.P,D13,2,A*%
%TO.N,Net-(D13-A)*%
X79440000Y-86360000D03*
%TD*%
D11*
%TO.P,SW5,1,1*%
%TO.N,IN_B*%
X72200000Y-58710000D03*
X80200000Y-58710000D03*
%TO.P,SW5,2,2*%
%TO.N,Net-(D5-A)*%
X72200000Y-63210000D03*
X80200000Y-63210000D03*
%TD*%
D10*
%TO.P,D2,1,K*%
%TO.N,OUT_2*%
X89216000Y-55880000D03*
%TO.P,D2,2,A*%
%TO.N,Net-(D2-A)*%
X90616000Y-55880000D03*
%TD*%
%TO.P,D9,1,K*%
%TO.N,OUT_1*%
X78040000Y-76200000D03*
%TO.P,D9,2,A*%
%TO.N,Net-(D9-A)*%
X79440000Y-76200000D03*
%TD*%
D11*
%TO.P,SW1,1,1*%
%TO.N,IN_A*%
X72200000Y-48550000D03*
X80200000Y-48550000D03*
%TO.P,SW1,2,2*%
%TO.N,Net-(D1-A)*%
X72200000Y-53050000D03*
X80200000Y-53050000D03*
%TD*%
D10*
%TO.P,D4,1,K*%
%TO.N,OUT_4*%
X112584000Y-55880000D03*
%TO.P,D4,2,A*%
%TO.N,Net-(D4-A)*%
X113984000Y-55880000D03*
%TD*%
%TO.P,D1,1,K*%
%TO.N,OUT_1*%
X78040000Y-55880000D03*
%TO.P,D1,2,A*%
%TO.N,Net-(D1-A)*%
X79440000Y-55880000D03*
%TD*%
D11*
%TO.P,SW6,1,1*%
%TO.N,IN_B*%
X83630000Y-58710000D03*
X91630000Y-58710000D03*
%TO.P,SW6,2,2*%
%TO.N,Net-(D6-A)*%
X83630000Y-63210000D03*
X91630000Y-63210000D03*
%TD*%
%TO.P,SW2,1,1*%
%TO.N,IN_A*%
X83630000Y-48550000D03*
X91630000Y-48550000D03*
%TO.P,SW2,2,2*%
%TO.N,Net-(D2-A)*%
X83630000Y-53050000D03*
X91630000Y-53050000D03*
%TD*%
D10*
%TO.P,D15,1,K*%
%TO.N,OUT_3*%
X100900000Y-86360000D03*
%TO.P,D15,2,A*%
%TO.N,Net-(D15-A)*%
X102300000Y-86360000D03*
%TD*%
D12*
%TO.P,J1,1,Pin_1*%
%TO.N,IN_A*%
X85105000Y-90170000D03*
D13*
%TO.P,J1,2,Pin_2*%
%TO.N,IN_B*%
X87645000Y-90170000D03*
%TO.P,J1,3,Pin_3*%
%TO.N,IN_C*%
X90185000Y-90170000D03*
%TO.P,J1,4,Pin_4*%
%TO.N,IN_D*%
X92725000Y-90170000D03*
%TO.P,J1,5,Pin_5*%
%TO.N,OUT_1*%
X95265000Y-90170000D03*
%TO.P,J1,6,Pin_6*%
%TO.N,OUT_2*%
X97805000Y-90170000D03*
%TO.P,J1,7,Pin_7*%
%TO.N,OUT_3*%
X100345000Y-90170000D03*
%TO.P,J1,8,Pin_8*%
%TO.N,OUT_4*%
X102885000Y-90170000D03*
%TD*%
D11*
%TO.P,SW12,1,1*%
%TO.N,IN_C*%
X106490000Y-68870000D03*
X114490000Y-68870000D03*
%TO.P,SW12,2,2*%
%TO.N,Net-(D12-A)*%
X106490000Y-73370000D03*
X114490000Y-73370000D03*
%TD*%
D10*
%TO.P,D3,1,K*%
%TO.N,OUT_3*%
X100900000Y-55880000D03*
%TO.P,D3,2,A*%
%TO.N,Net-(D3-A)*%
X102300000Y-55880000D03*
%TD*%
D11*
%TO.P,SW16,1,1*%
%TO.N,IN_D*%
X106490000Y-79030000D03*
X114490000Y-79030000D03*
%TO.P,SW16,2,2*%
%TO.N,Net-(D16-A)*%
X106490000Y-83530000D03*
X114490000Y-83530000D03*
%TD*%
%TO.P,SW13,1,1*%
%TO.N,IN_D*%
X72200000Y-79030000D03*
X80200000Y-79030000D03*
%TO.P,SW13,2,2*%
%TO.N,Net-(D13-A)*%
X72200000Y-83530000D03*
X80200000Y-83530000D03*
%TD*%
D14*
%TO.N,IN_B*%
X108458000Y-58674000D03*
X85344000Y-58674000D03*
X74168000Y-58674000D03*
X97028000Y-58674000D03*
%TO.N,IN_C*%
X108204000Y-68834000D03*
X74168000Y-68834000D03*
X86360000Y-68834000D03*
X97282000Y-68834000D03*
%TO.N,IN_D*%
X108204000Y-78994000D03*
X87376000Y-78994000D03*
X96774000Y-78994000D03*
X73914000Y-78994000D03*
%TD*%
D15*
%TO.N,OUT_1*%
X78040000Y-88962000D02*
X81026000Y-91948000D01*
X78040000Y-66040000D02*
X78040000Y-55880000D01*
X78040000Y-86360000D02*
X78040000Y-88962000D01*
X81026000Y-91948000D02*
X94742000Y-91948000D01*
X78040000Y-76200000D02*
X78040000Y-66040000D01*
X94742000Y-91948000D02*
X95265000Y-91425000D01*
X78040000Y-86360000D02*
X78040000Y-76200000D01*
X95265000Y-91425000D02*
X95265000Y-90170000D01*
%TO.N,Net-(D1-A)*%
X80200000Y-53050000D02*
X80200000Y-55120000D01*
X80200000Y-55120000D02*
X79440000Y-55880000D01*
%TO.N,OUT_2*%
X90016000Y-87160000D02*
X89216000Y-86360000D01*
X96408000Y-87010000D02*
X91164528Y-87010000D01*
X91014528Y-87160000D02*
X90016000Y-87160000D01*
X97805000Y-88407000D02*
X96408000Y-87010000D01*
X89216000Y-55880000D02*
X89216000Y-66040000D01*
X89216000Y-66040000D02*
X89216000Y-76200000D01*
X97805000Y-90170000D02*
X97805000Y-88407000D01*
X89216000Y-76200000D02*
X89216000Y-86360000D01*
X91164528Y-87010000D02*
X91014528Y-87160000D01*
%TO.N,Net-(D2-A)*%
X91630000Y-53050000D02*
X91630000Y-54866000D01*
X91630000Y-54866000D02*
X90616000Y-55880000D01*
%TO.N,OUT_3*%
X100345000Y-90170000D02*
X100345000Y-86915000D01*
X100900000Y-86360000D02*
X100900000Y-76200000D01*
X100345000Y-86915000D02*
X100900000Y-86360000D01*
X100900000Y-66040000D02*
X100900000Y-55880000D01*
X100900000Y-66040000D02*
X100900000Y-76200000D01*
%TO.N,Net-(D3-A)*%
X103060000Y-55120000D02*
X102300000Y-55880000D01*
X103060000Y-53050000D02*
X103060000Y-55120000D01*
%TO.N,OUT_4*%
X112584000Y-66040000D02*
X112584000Y-76200000D01*
X112584000Y-76200000D02*
X112584000Y-86360000D01*
X112584000Y-86360000D02*
X108774000Y-90170000D01*
X112584000Y-55880000D02*
X112584000Y-66040000D01*
X108774000Y-90170000D02*
X102885000Y-90170000D01*
%TO.N,Net-(D4-A)*%
X114490000Y-53050000D02*
X114490000Y-55374000D01*
X114490000Y-55374000D02*
X113984000Y-55880000D01*
%TO.N,Net-(D5-A)*%
X80200000Y-65280000D02*
X79440000Y-66040000D01*
X80200000Y-63210000D02*
X80200000Y-65280000D01*
%TO.N,Net-(D6-A)*%
X91630000Y-63210000D02*
X91630000Y-65026000D01*
X91630000Y-65026000D02*
X90616000Y-66040000D01*
%TO.N,Net-(D7-A)*%
X103060000Y-63210000D02*
X103060000Y-65280000D01*
X103060000Y-65280000D02*
X102300000Y-66040000D01*
%TO.N,Net-(D8-A)*%
X114490000Y-65534000D02*
X113984000Y-66040000D01*
X114490000Y-63500000D02*
X114490000Y-65534000D01*
%TO.N,Net-(D9-A)*%
X80200000Y-73370000D02*
X80200000Y-75440000D01*
X80200000Y-75440000D02*
X79440000Y-76200000D01*
%TO.N,Net-(D10-A)*%
X91630000Y-75186000D02*
X90616000Y-76200000D01*
X91630000Y-73370000D02*
X91630000Y-75186000D01*
%TO.N,Net-(D11-A)*%
X103060000Y-75440000D02*
X102300000Y-76200000D01*
X103060000Y-73370000D02*
X103060000Y-75440000D01*
%TO.N,Net-(D12-A)*%
X114490000Y-75694000D02*
X113984000Y-76200000D01*
X114490000Y-73370000D02*
X114490000Y-75694000D01*
%TO.N,Net-(D13-A)*%
X80200000Y-83530000D02*
X80200000Y-85600000D01*
X80200000Y-85600000D02*
X79440000Y-86360000D01*
%TO.N,Net-(D14-A)*%
X91630000Y-83530000D02*
X91630000Y-85346000D01*
X91630000Y-85346000D02*
X90616000Y-86360000D01*
%TO.N,Net-(D15-A)*%
X103060000Y-83530000D02*
X103060000Y-85600000D01*
X103060000Y-85600000D02*
X102300000Y-86360000D01*
%TO.N,Net-(D16-A)*%
X114490000Y-85854000D02*
X113984000Y-86360000D01*
X114490000Y-83530000D02*
X114490000Y-85854000D01*
%TO.N,IN_A*%
X103060000Y-48550000D02*
X106490000Y-48550000D01*
X82042000Y-48514000D02*
X82078000Y-48550000D01*
X83630000Y-48550000D02*
X91630000Y-48550000D01*
X80200000Y-48550000D02*
X72200000Y-48550000D01*
X83058000Y-90170000D02*
X82042000Y-89154000D01*
X82078000Y-48550000D02*
X83630000Y-48550000D01*
X106490000Y-48550000D02*
X114490000Y-48550000D01*
X80200000Y-48550000D02*
X82006000Y-48550000D01*
X82042000Y-89154000D02*
X82042000Y-48514000D01*
X95060000Y-48550000D02*
X103060000Y-48550000D01*
X82006000Y-48550000D02*
X82042000Y-48514000D01*
X85105000Y-90170000D02*
X83058000Y-90170000D01*
X91630000Y-48550000D02*
X95060000Y-48550000D01*
%TO.N,IN_B*%
X85344000Y-58674000D02*
X83666000Y-58674000D01*
X106490000Y-58710000D02*
X103060000Y-58710000D01*
X74168000Y-58674000D02*
X72236000Y-58674000D01*
X95060000Y-58710000D02*
X91630000Y-58710000D01*
X85344000Y-87869000D02*
X87645000Y-90170000D01*
X83666000Y-58674000D02*
X83630000Y-58710000D01*
X97028000Y-58674000D02*
X95096000Y-58674000D01*
X85344000Y-58674000D02*
X85344000Y-87869000D01*
X106526000Y-58674000D02*
X106490000Y-58710000D01*
X108458000Y-58674000D02*
X106526000Y-58674000D01*
X72236000Y-58674000D02*
X72200000Y-58710000D01*
X95096000Y-58674000D02*
X95060000Y-58710000D01*
%TO.N,IN_C*%
X89662000Y-90170000D02*
X86360000Y-86868000D01*
X74168000Y-68834000D02*
X72236000Y-68834000D01*
X106526000Y-68834000D02*
X106490000Y-68870000D01*
X72236000Y-68834000D02*
X72200000Y-68870000D01*
X97282000Y-68834000D02*
X95096000Y-68834000D01*
X90185000Y-90170000D02*
X89662000Y-90170000D01*
X95060000Y-68870000D02*
X91630000Y-68870000D01*
X108204000Y-68834000D02*
X106526000Y-68834000D01*
X95096000Y-68834000D02*
X95060000Y-68870000D01*
X86360000Y-86868000D02*
X86360000Y-68834000D01*
%TO.N,IN_D*%
X108204000Y-78994000D02*
X106526000Y-78994000D01*
X73914000Y-78994000D02*
X72236000Y-78994000D01*
X87376000Y-78994000D02*
X87376000Y-86360000D01*
X87376000Y-86360000D02*
X89408000Y-88392000D01*
X96774000Y-78994000D02*
X95096000Y-78994000D01*
X72236000Y-78994000D02*
X72200000Y-79030000D01*
X90947000Y-88392000D02*
X92725000Y-90170000D01*
X95096000Y-78994000D02*
X95060000Y-79030000D01*
X106526000Y-78994000D02*
X106490000Y-79030000D01*
X95060000Y-79030000D02*
X91630000Y-79030000D01*
X89408000Y-88392000D02*
X90947000Y-88392000D01*
%TD*%
M02*
