%TF.GenerationSoftware,KiCad,Pcbnew,7.0.2*%
%TF.CreationDate,2023-04-22T16:22:17+02:00*%
%TF.ProjectId,Button_matrix,42757474-6f6e-45f6-9d61-747269782e6b,rev?*%
%TF.SameCoordinates,Original*%
%TF.FileFunction,Legend,Top*%
%TF.FilePolarity,Positive*%
%FSLAX46Y46*%
G04 Gerber Fmt 4.6, Leading zero omitted, Abs format (unit mm)*
G04 Created by KiCad (PCBNEW 7.0.2) date 2023-04-22 16:22:17*
%MOMM*%
%LPD*%
G01*
G04 APERTURE LIST*
%ADD10C,0.200000*%
%ADD11C,0.150000*%
%ADD12C,0.120000*%
G04 APERTURE END LIST*
D10*
X76454000Y-85211023D02*
X76454000Y-85508642D01*
X76156381Y-85389595D02*
X76454000Y-85508642D01*
X76454000Y-85508642D02*
X76751619Y-85389595D01*
X76275429Y-85746738D02*
X76454000Y-85508642D01*
X76454000Y-85508642D02*
X76632571Y-85746738D01*
X87927619Y-64891023D02*
X87332381Y-64891023D01*
X87332381Y-64891023D02*
X87272857Y-65486261D01*
X87272857Y-65486261D02*
X87332381Y-65426738D01*
X87332381Y-65426738D02*
X87451428Y-65367214D01*
X87451428Y-65367214D02*
X87749047Y-65367214D01*
X87749047Y-65367214D02*
X87868095Y-65426738D01*
X87868095Y-65426738D02*
X87927619Y-65486261D01*
X87927619Y-65486261D02*
X87987142Y-65605309D01*
X87987142Y-65605309D02*
X87987142Y-65902928D01*
X87987142Y-65902928D02*
X87927619Y-66021976D01*
X87927619Y-66021976D02*
X87868095Y-66081500D01*
X87868095Y-66081500D02*
X87749047Y-66141023D01*
X87749047Y-66141023D02*
X87451428Y-66141023D01*
X87451428Y-66141023D02*
X87332381Y-66081500D01*
X87332381Y-66081500D02*
X87272857Y-66021976D01*
X87018857Y-54850071D02*
X87078381Y-54790547D01*
X87078381Y-54790547D02*
X87197428Y-54731023D01*
X87197428Y-54731023D02*
X87495047Y-54731023D01*
X87495047Y-54731023D02*
X87614095Y-54790547D01*
X87614095Y-54790547D02*
X87673619Y-54850071D01*
X87673619Y-54850071D02*
X87733142Y-54969119D01*
X87733142Y-54969119D02*
X87733142Y-55088166D01*
X87733142Y-55088166D02*
X87673619Y-55266738D01*
X87673619Y-55266738D02*
X86959333Y-55981023D01*
X86959333Y-55981023D02*
X87733142Y-55981023D01*
X76557142Y-55981023D02*
X75842857Y-55981023D01*
X76200000Y-55981023D02*
X76200000Y-54731023D01*
X76200000Y-54731023D02*
X76080952Y-54909595D01*
X76080952Y-54909595D02*
X75961904Y-55028642D01*
X75961904Y-55028642D02*
X75842857Y-55088166D01*
X110416619Y-86461023D02*
X110416619Y-85211023D01*
X110416619Y-85211023D02*
X110714238Y-85211023D01*
X110714238Y-85211023D02*
X110892809Y-85270547D01*
X110892809Y-85270547D02*
X111011857Y-85389595D01*
X111011857Y-85389595D02*
X111071380Y-85508642D01*
X111071380Y-85508642D02*
X111130904Y-85746738D01*
X111130904Y-85746738D02*
X111130904Y-85925309D01*
X111130904Y-85925309D02*
X111071380Y-86163404D01*
X111071380Y-86163404D02*
X111011857Y-86282452D01*
X111011857Y-86282452D02*
X110892809Y-86401500D01*
X110892809Y-86401500D02*
X110714238Y-86461023D01*
X110714238Y-86461023D02*
X110416619Y-86461023D01*
X87570476Y-85211023D02*
X87689523Y-85211023D01*
X87689523Y-85211023D02*
X87808571Y-85270547D01*
X87808571Y-85270547D02*
X87868095Y-85330071D01*
X87868095Y-85330071D02*
X87927619Y-85449119D01*
X87927619Y-85449119D02*
X87987142Y-85687214D01*
X87987142Y-85687214D02*
X87987142Y-85984833D01*
X87987142Y-85984833D02*
X87927619Y-86222928D01*
X87927619Y-86222928D02*
X87868095Y-86341976D01*
X87868095Y-86341976D02*
X87808571Y-86401500D01*
X87808571Y-86401500D02*
X87689523Y-86461023D01*
X87689523Y-86461023D02*
X87570476Y-86461023D01*
X87570476Y-86461023D02*
X87451428Y-86401500D01*
X87451428Y-86401500D02*
X87391904Y-86341976D01*
X87391904Y-86341976D02*
X87332381Y-86222928D01*
X87332381Y-86222928D02*
X87272857Y-85984833D01*
X87272857Y-85984833D02*
X87272857Y-85687214D01*
X87272857Y-85687214D02*
X87332381Y-85449119D01*
X87332381Y-85449119D02*
X87391904Y-85330071D01*
X87391904Y-85330071D02*
X87451428Y-85270547D01*
X87451428Y-85270547D02*
X87570476Y-85211023D01*
X87510952Y-75586738D02*
X87391904Y-75527214D01*
X87391904Y-75527214D02*
X87332381Y-75467690D01*
X87332381Y-75467690D02*
X87272857Y-75348642D01*
X87272857Y-75348642D02*
X87272857Y-75289119D01*
X87272857Y-75289119D02*
X87332381Y-75170071D01*
X87332381Y-75170071D02*
X87391904Y-75110547D01*
X87391904Y-75110547D02*
X87510952Y-75051023D01*
X87510952Y-75051023D02*
X87749047Y-75051023D01*
X87749047Y-75051023D02*
X87868095Y-75110547D01*
X87868095Y-75110547D02*
X87927619Y-75170071D01*
X87927619Y-75170071D02*
X87987142Y-75289119D01*
X87987142Y-75289119D02*
X87987142Y-75348642D01*
X87987142Y-75348642D02*
X87927619Y-75467690D01*
X87927619Y-75467690D02*
X87868095Y-75527214D01*
X87868095Y-75527214D02*
X87749047Y-75586738D01*
X87749047Y-75586738D02*
X87510952Y-75586738D01*
X87510952Y-75586738D02*
X87391904Y-75646261D01*
X87391904Y-75646261D02*
X87332381Y-75705785D01*
X87332381Y-75705785D02*
X87272857Y-75824833D01*
X87272857Y-75824833D02*
X87272857Y-76062928D01*
X87272857Y-76062928D02*
X87332381Y-76181976D01*
X87332381Y-76181976D02*
X87391904Y-76241500D01*
X87391904Y-76241500D02*
X87510952Y-76301023D01*
X87510952Y-76301023D02*
X87749047Y-76301023D01*
X87749047Y-76301023D02*
X87868095Y-76241500D01*
X87868095Y-76241500D02*
X87927619Y-76181976D01*
X87927619Y-76181976D02*
X87987142Y-76062928D01*
X87987142Y-76062928D02*
X87987142Y-75824833D01*
X87987142Y-75824833D02*
X87927619Y-75705785D01*
X87927619Y-75705785D02*
X87868095Y-75646261D01*
X87868095Y-75646261D02*
X87749047Y-75586738D01*
X110446381Y-55623880D02*
X111041619Y-55623880D01*
X110327333Y-55981023D02*
X110744000Y-54731023D01*
X110744000Y-54731023D02*
X111160666Y-55981023D01*
X76692095Y-65307690D02*
X76692095Y-66141023D01*
X76394476Y-64831500D02*
X76096857Y-65724357D01*
X76096857Y-65724357D02*
X76870666Y-65724357D01*
X99075904Y-76301023D02*
X99314000Y-76301023D01*
X99314000Y-76301023D02*
X99433047Y-76241500D01*
X99433047Y-76241500D02*
X99492571Y-76181976D01*
X99492571Y-76181976D02*
X99611619Y-76003404D01*
X99611619Y-76003404D02*
X99671142Y-75765309D01*
X99671142Y-75765309D02*
X99671142Y-75289119D01*
X99671142Y-75289119D02*
X99611619Y-75170071D01*
X99611619Y-75170071D02*
X99552095Y-75110547D01*
X99552095Y-75110547D02*
X99433047Y-75051023D01*
X99433047Y-75051023D02*
X99194952Y-75051023D01*
X99194952Y-75051023D02*
X99075904Y-75110547D01*
X99075904Y-75110547D02*
X99016381Y-75170071D01*
X99016381Y-75170071D02*
X98956857Y-75289119D01*
X98956857Y-75289119D02*
X98956857Y-75586738D01*
X98956857Y-75586738D02*
X99016381Y-75705785D01*
X99016381Y-75705785D02*
X99075904Y-75765309D01*
X99075904Y-75765309D02*
X99194952Y-75824833D01*
X99194952Y-75824833D02*
X99433047Y-75824833D01*
X99433047Y-75824833D02*
X99552095Y-75765309D01*
X99552095Y-75765309D02*
X99611619Y-75705785D01*
X99611619Y-75705785D02*
X99671142Y-75586738D01*
X111130904Y-76181976D02*
X111071380Y-76241500D01*
X111071380Y-76241500D02*
X110892809Y-76301023D01*
X110892809Y-76301023D02*
X110773761Y-76301023D01*
X110773761Y-76301023D02*
X110595190Y-76241500D01*
X110595190Y-76241500D02*
X110476142Y-76122452D01*
X110476142Y-76122452D02*
X110416619Y-76003404D01*
X110416619Y-76003404D02*
X110357095Y-75765309D01*
X110357095Y-75765309D02*
X110357095Y-75586738D01*
X110357095Y-75586738D02*
X110416619Y-75348642D01*
X110416619Y-75348642D02*
X110476142Y-75229595D01*
X110476142Y-75229595D02*
X110595190Y-75110547D01*
X110595190Y-75110547D02*
X110773761Y-75051023D01*
X110773761Y-75051023D02*
X110892809Y-75051023D01*
X110892809Y-75051023D02*
X111071380Y-75110547D01*
X111071380Y-75110547D02*
X111130904Y-75170071D01*
D11*
X94662571Y-87269619D02*
X94853047Y-87269619D01*
X94853047Y-87269619D02*
X94948285Y-87317238D01*
X94948285Y-87317238D02*
X95043523Y-87412476D01*
X95043523Y-87412476D02*
X95091142Y-87602952D01*
X95091142Y-87602952D02*
X95091142Y-87936285D01*
X95091142Y-87936285D02*
X95043523Y-88126761D01*
X95043523Y-88126761D02*
X94948285Y-88222000D01*
X94948285Y-88222000D02*
X94853047Y-88269619D01*
X94853047Y-88269619D02*
X94662571Y-88269619D01*
X94662571Y-88269619D02*
X94567333Y-88222000D01*
X94567333Y-88222000D02*
X94472095Y-88126761D01*
X94472095Y-88126761D02*
X94424476Y-87936285D01*
X94424476Y-87936285D02*
X94424476Y-87602952D01*
X94424476Y-87602952D02*
X94472095Y-87412476D01*
X94472095Y-87412476D02*
X94567333Y-87317238D01*
X94567333Y-87317238D02*
X94662571Y-87269619D01*
X95519714Y-87269619D02*
X95519714Y-88079142D01*
X95519714Y-88079142D02*
X95567333Y-88174380D01*
X95567333Y-88174380D02*
X95614952Y-88222000D01*
X95614952Y-88222000D02*
X95710190Y-88269619D01*
X95710190Y-88269619D02*
X95900666Y-88269619D01*
X95900666Y-88269619D02*
X95995904Y-88222000D01*
X95995904Y-88222000D02*
X96043523Y-88174380D01*
X96043523Y-88174380D02*
X96091142Y-88079142D01*
X96091142Y-88079142D02*
X96091142Y-87269619D01*
X96424476Y-87269619D02*
X96995904Y-87269619D01*
X96710190Y-88269619D02*
X96710190Y-87269619D01*
D10*
X110833285Y-65486261D02*
X111011857Y-65545785D01*
X111011857Y-65545785D02*
X111071380Y-65605309D01*
X111071380Y-65605309D02*
X111130904Y-65724357D01*
X111130904Y-65724357D02*
X111130904Y-65902928D01*
X111130904Y-65902928D02*
X111071380Y-66021976D01*
X111071380Y-66021976D02*
X111011857Y-66081500D01*
X111011857Y-66081500D02*
X110892809Y-66141023D01*
X110892809Y-66141023D02*
X110416619Y-66141023D01*
X110416619Y-66141023D02*
X110416619Y-64891023D01*
X110416619Y-64891023D02*
X110833285Y-64891023D01*
X110833285Y-64891023D02*
X110952333Y-64950547D01*
X110952333Y-64950547D02*
X111011857Y-65010071D01*
X111011857Y-65010071D02*
X111071380Y-65129119D01*
X111071380Y-65129119D02*
X111071380Y-65248166D01*
X111071380Y-65248166D02*
X111011857Y-65367214D01*
X111011857Y-65367214D02*
X110952333Y-65426738D01*
X110952333Y-65426738D02*
X110833285Y-65486261D01*
X110833285Y-65486261D02*
X110416619Y-65486261D01*
X98927095Y-85627690D02*
X99819952Y-85627690D01*
X99284238Y-85091976D02*
X98927095Y-86699119D01*
X99700904Y-86163404D02*
X98808047Y-86163404D01*
X99343761Y-86699119D02*
X99700904Y-85091976D01*
D11*
X84312095Y-88269619D02*
X84312095Y-87269619D01*
X84788285Y-88269619D02*
X84788285Y-87269619D01*
X84788285Y-87269619D02*
X85359713Y-88269619D01*
X85359713Y-88269619D02*
X85359713Y-87269619D01*
D10*
X76037333Y-75051023D02*
X76870666Y-75051023D01*
X76870666Y-75051023D02*
X76334952Y-76301023D01*
X98643333Y-54731023D02*
X99417142Y-54731023D01*
X99417142Y-54731023D02*
X99000476Y-55207214D01*
X99000476Y-55207214D02*
X99179047Y-55207214D01*
X99179047Y-55207214D02*
X99298095Y-55266738D01*
X99298095Y-55266738D02*
X99357619Y-55326261D01*
X99357619Y-55326261D02*
X99417142Y-55445309D01*
X99417142Y-55445309D02*
X99417142Y-55742928D01*
X99417142Y-55742928D02*
X99357619Y-55861976D01*
X99357619Y-55861976D02*
X99298095Y-55921500D01*
X99298095Y-55921500D02*
X99179047Y-55981023D01*
X99179047Y-55981023D02*
X98821904Y-55981023D01*
X98821904Y-55981023D02*
X98702857Y-55921500D01*
X98702857Y-55921500D02*
X98643333Y-55861976D01*
X99552095Y-64891023D02*
X99314000Y-64891023D01*
X99314000Y-64891023D02*
X99194952Y-64950547D01*
X99194952Y-64950547D02*
X99135428Y-65010071D01*
X99135428Y-65010071D02*
X99016381Y-65188642D01*
X99016381Y-65188642D02*
X98956857Y-65426738D01*
X98956857Y-65426738D02*
X98956857Y-65902928D01*
X98956857Y-65902928D02*
X99016381Y-66021976D01*
X99016381Y-66021976D02*
X99075904Y-66081500D01*
X99075904Y-66081500D02*
X99194952Y-66141023D01*
X99194952Y-66141023D02*
X99433047Y-66141023D01*
X99433047Y-66141023D02*
X99552095Y-66081500D01*
X99552095Y-66081500D02*
X99611619Y-66021976D01*
X99611619Y-66021976D02*
X99671142Y-65902928D01*
X99671142Y-65902928D02*
X99671142Y-65605309D01*
X99671142Y-65605309D02*
X99611619Y-65486261D01*
X99611619Y-65486261D02*
X99552095Y-65426738D01*
X99552095Y-65426738D02*
X99433047Y-65367214D01*
X99433047Y-65367214D02*
X99194952Y-65367214D01*
X99194952Y-65367214D02*
X99075904Y-65426738D01*
X99075904Y-65426738D02*
X99016381Y-65486261D01*
X99016381Y-65486261D02*
X98956857Y-65605309D01*
%TO.C,G\u002A\u002A\u002A*%
G36*
X72462634Y-89009984D02*
G01*
X72462923Y-89013969D01*
X72461485Y-89022770D01*
X72458601Y-89035397D01*
X72454551Y-89050857D01*
X72449617Y-89068161D01*
X72444078Y-89086316D01*
X72438216Y-89104333D01*
X72432310Y-89121218D01*
X72427712Y-89133325D01*
X72405241Y-89182331D01*
X72377135Y-89230882D01*
X72343900Y-89278285D01*
X72306041Y-89323846D01*
X72264064Y-89366869D01*
X72245146Y-89384174D01*
X72237742Y-89391047D01*
X72232854Y-89396228D01*
X72231552Y-89398514D01*
X72234748Y-89397993D01*
X72242281Y-89395563D01*
X72252809Y-89391676D01*
X72258669Y-89389371D01*
X72350663Y-89355024D01*
X72447610Y-89323693D01*
X72549064Y-89295463D01*
X72654576Y-89270421D01*
X72763699Y-89248652D01*
X72875987Y-89230241D01*
X72990990Y-89215274D01*
X73108263Y-89203836D01*
X73227357Y-89196012D01*
X73283102Y-89193634D01*
X73322356Y-89192539D01*
X73365426Y-89191863D01*
X73411435Y-89191589D01*
X73459503Y-89191697D01*
X73508753Y-89192169D01*
X73558306Y-89192986D01*
X73607285Y-89194131D01*
X73654812Y-89195584D01*
X73700008Y-89197326D01*
X73741995Y-89199341D01*
X73779895Y-89201608D01*
X73812830Y-89204110D01*
X73822728Y-89205009D01*
X73843110Y-89206955D01*
X73812980Y-89297231D01*
X73805595Y-89319490D01*
X73798957Y-89339754D01*
X73793286Y-89357325D01*
X73788808Y-89371503D01*
X73785743Y-89381586D01*
X73784315Y-89386876D01*
X73784272Y-89387507D01*
X73787626Y-89386233D01*
X73794428Y-89383021D01*
X73797926Y-89381266D01*
X73818027Y-89372153D01*
X73842523Y-89362864D01*
X73869708Y-89353949D01*
X73897876Y-89345955D01*
X73925320Y-89339432D01*
X73932927Y-89337888D01*
X73951450Y-89334411D01*
X73966674Y-89331943D01*
X73980418Y-89330327D01*
X73994499Y-89329407D01*
X74010735Y-89329025D01*
X74030945Y-89329026D01*
X74035444Y-89329057D01*
X74075108Y-89330462D01*
X74112260Y-89334266D01*
X74148152Y-89340780D01*
X74184034Y-89350318D01*
X74221155Y-89363192D01*
X74260767Y-89379714D01*
X74287459Y-89392088D01*
X74301747Y-89399122D01*
X74315217Y-89406243D01*
X74328486Y-89413882D01*
X74342172Y-89422472D01*
X74356893Y-89432443D01*
X74373266Y-89444227D01*
X74391910Y-89458256D01*
X74413442Y-89474961D01*
X74438479Y-89494773D01*
X74465998Y-89516805D01*
X74506502Y-89549285D01*
X74542638Y-89578103D01*
X74574766Y-89603523D01*
X74603243Y-89625810D01*
X74628428Y-89645229D01*
X74650679Y-89662045D01*
X74670356Y-89676522D01*
X74687816Y-89688925D01*
X74703419Y-89699520D01*
X74717522Y-89708570D01*
X74730483Y-89716342D01*
X74742663Y-89723099D01*
X74751180Y-89727501D01*
X74803042Y-89750661D01*
X74855864Y-89768424D01*
X74910911Y-89781171D01*
X74948015Y-89786889D01*
X74967608Y-89788166D01*
X74991831Y-89787787D01*
X75019418Y-89785835D01*
X75049105Y-89782392D01*
X75072221Y-89778841D01*
X75084752Y-89776887D01*
X75094843Y-89775650D01*
X75101082Y-89775285D01*
X75102363Y-89775515D01*
X75102038Y-89778884D01*
X75099824Y-89786503D01*
X75096158Y-89796936D01*
X75094720Y-89800707D01*
X75085537Y-89824359D01*
X75103698Y-89893812D01*
X75109652Y-89916389D01*
X75114493Y-89934053D01*
X75118602Y-89947856D01*
X75122359Y-89958845D01*
X75126144Y-89968071D01*
X75130336Y-89976581D01*
X75135315Y-89985427D01*
X75139285Y-89992069D01*
X75167969Y-90035879D01*
X75200183Y-90078653D01*
X75235104Y-90119528D01*
X75271912Y-90157642D01*
X75309784Y-90192133D01*
X75347898Y-90222139D01*
X75377325Y-90241910D01*
X75394567Y-90252568D01*
X75383470Y-90264813D01*
X75360327Y-90287570D01*
X75332612Y-90310227D01*
X75301826Y-90331745D01*
X75269471Y-90351085D01*
X75237047Y-90367210D01*
X75232778Y-90369070D01*
X75206416Y-90379062D01*
X75176771Y-90388098D01*
X75145251Y-90395910D01*
X75113263Y-90402229D01*
X75082213Y-90406787D01*
X75053510Y-90409316D01*
X75028561Y-90409548D01*
X75022531Y-90409171D01*
X74999229Y-90406798D01*
X74974135Y-90403447D01*
X74949540Y-90399471D01*
X74927731Y-90395222D01*
X74919185Y-90393254D01*
X74880316Y-90381128D01*
X74840420Y-90363899D01*
X74800539Y-90342249D01*
X74761717Y-90316861D01*
X74724997Y-90288417D01*
X74691422Y-90257599D01*
X74662035Y-90225091D01*
X74661898Y-90224922D01*
X74656058Y-90218333D01*
X74651802Y-90214626D01*
X74650535Y-90214320D01*
X74650276Y-90217997D01*
X74651076Y-90226613D01*
X74652757Y-90239091D01*
X74655140Y-90254349D01*
X74658047Y-90271310D01*
X74661301Y-90288893D01*
X74664723Y-90306021D01*
X74668135Y-90321612D01*
X74668474Y-90323070D01*
X74685109Y-90385183D01*
X74705059Y-90444107D01*
X74728032Y-90499089D01*
X74753736Y-90549378D01*
X74762322Y-90564079D01*
X74768888Y-90575301D01*
X74773919Y-90584558D01*
X74776765Y-90590612D01*
X74777144Y-90592223D01*
X74774587Y-90594533D01*
X74767833Y-90599911D01*
X74757580Y-90607836D01*
X74744527Y-90617788D01*
X74729372Y-90629246D01*
X74712813Y-90641689D01*
X74695547Y-90654597D01*
X74678274Y-90667448D01*
X74661692Y-90679723D01*
X74646499Y-90690900D01*
X74633392Y-90700459D01*
X74623071Y-90707879D01*
X74616233Y-90712639D01*
X74613577Y-90714218D01*
X74613571Y-90714213D01*
X74612949Y-90711095D01*
X74611427Y-90702448D01*
X74609095Y-90688812D01*
X74606044Y-90670723D01*
X74602363Y-90648718D01*
X74598142Y-90623335D01*
X74593471Y-90595111D01*
X74588440Y-90564582D01*
X74584017Y-90537642D01*
X74555227Y-90362012D01*
X74387864Y-90232024D01*
X74220501Y-90102036D01*
X74137395Y-90116201D01*
X74115633Y-90119889D01*
X74095956Y-90123183D01*
X74079147Y-90125955D01*
X74065986Y-90128078D01*
X74057255Y-90129425D01*
X74053734Y-90129867D01*
X74053700Y-90129859D01*
X74053907Y-90126808D01*
X74054833Y-90118615D01*
X74056360Y-90106227D01*
X74058374Y-90090591D01*
X74060755Y-90072654D01*
X74060898Y-90071593D01*
X74063275Y-90053512D01*
X74065249Y-90037639D01*
X74066708Y-90024929D01*
X74067545Y-90016340D01*
X74067648Y-90012830D01*
X74067631Y-90012805D01*
X74064494Y-90012206D01*
X74055758Y-90010804D01*
X74041906Y-90008669D01*
X74023421Y-90005875D01*
X74000786Y-90002491D01*
X73974485Y-89998592D01*
X73944999Y-89994248D01*
X73912813Y-89989531D01*
X73878409Y-89984514D01*
X73847759Y-89980064D01*
X73811947Y-89974841D01*
X73778019Y-89969828D01*
X73746449Y-89965101D01*
X73717709Y-89960732D01*
X73692275Y-89956796D01*
X73670619Y-89953367D01*
X73653215Y-89950518D01*
X73640538Y-89948324D01*
X73633060Y-89946858D01*
X73631151Y-89946235D01*
X73635402Y-89944911D01*
X73645332Y-89943373D01*
X73660479Y-89941666D01*
X73680382Y-89939831D01*
X73704579Y-89937912D01*
X73732609Y-89935951D01*
X73762405Y-89934086D01*
X73838750Y-89931586D01*
X73918657Y-89932814D01*
X74000898Y-89937650D01*
X74084246Y-89945972D01*
X74167472Y-89957660D01*
X74249349Y-89972594D01*
X74323129Y-89989268D01*
X74341367Y-89993756D01*
X74357465Y-89997625D01*
X74370514Y-90000665D01*
X74379605Y-90002665D01*
X74383829Y-90003413D01*
X74384011Y-90003394D01*
X74382702Y-90000820D01*
X74377221Y-89995114D01*
X74368285Y-89986868D01*
X74356609Y-89976675D01*
X74342911Y-89965126D01*
X74327906Y-89952813D01*
X74312310Y-89940327D01*
X74296842Y-89928262D01*
X74282216Y-89917209D01*
X74269149Y-89907759D01*
X74263775Y-89904057D01*
X74201873Y-89865439D01*
X74137064Y-89831008D01*
X74070417Y-89801251D01*
X74003002Y-89776654D01*
X73949370Y-89761053D01*
X73933112Y-89757368D01*
X73912123Y-89753358D01*
X73887791Y-89749230D01*
X73861506Y-89745191D01*
X73834658Y-89741449D01*
X73808636Y-89738210D01*
X73784831Y-89735682D01*
X73771623Y-89734549D01*
X73710849Y-89732386D01*
X73647475Y-89734667D01*
X73582930Y-89741196D01*
X73518641Y-89751777D01*
X73456038Y-89766213D01*
X73396549Y-89784309D01*
X73388485Y-89787147D01*
X73316292Y-89816241D01*
X73246960Y-89850724D01*
X73180702Y-89890439D01*
X73117730Y-89935229D01*
X73058256Y-89984937D01*
X73002494Y-90039407D01*
X72950657Y-90098481D01*
X72929903Y-90124896D01*
X72916925Y-90142301D01*
X72907840Y-90155261D01*
X72902518Y-90163978D01*
X72900828Y-90168651D01*
X72901100Y-90169399D01*
X72901513Y-90169592D01*
X72902496Y-90169492D01*
X72904540Y-90168905D01*
X72908136Y-90167636D01*
X72913776Y-90165492D01*
X72921950Y-90162279D01*
X72933150Y-90157802D01*
X72947866Y-90151869D01*
X72966591Y-90144284D01*
X72989815Y-90134855D01*
X73018029Y-90123386D01*
X73031770Y-90117799D01*
X73118409Y-90082569D01*
X73188466Y-90145652D01*
X73282049Y-90228919D01*
X73374815Y-90309392D01*
X73467509Y-90387660D01*
X73560880Y-90464315D01*
X73655677Y-90539947D01*
X73752645Y-90615148D01*
X73852535Y-90690507D01*
X73956092Y-90766616D01*
X74064065Y-90844066D01*
X74141854Y-90898821D01*
X74147588Y-90903471D01*
X74157236Y-90912071D01*
X74170375Y-90924214D01*
X74186580Y-90939497D01*
X74205429Y-90957513D01*
X74226499Y-90977859D01*
X74249367Y-91000130D01*
X74273609Y-91023920D01*
X74298801Y-91048825D01*
X74302390Y-91052387D01*
X74442954Y-91191998D01*
X74442954Y-91234533D01*
X74443108Y-91249899D01*
X74443531Y-91262795D01*
X74444163Y-91272115D01*
X74444946Y-91276753D01*
X74445222Y-91277068D01*
X74448867Y-91276471D01*
X74457440Y-91274825D01*
X74469851Y-91272345D01*
X74485014Y-91269248D01*
X74494305Y-91267323D01*
X74541121Y-91257579D01*
X74574226Y-91269167D01*
X74643365Y-91290865D01*
X74712763Y-91307748D01*
X74781099Y-91319507D01*
X74797804Y-91321603D01*
X74820061Y-91323578D01*
X74846721Y-91324980D01*
X74876069Y-91325796D01*
X74906388Y-91326009D01*
X74935962Y-91325605D01*
X74963075Y-91324570D01*
X74982832Y-91323189D01*
X75021292Y-91318579D01*
X75062927Y-91311563D01*
X75106133Y-91302531D01*
X75149305Y-91291874D01*
X75190838Y-91279982D01*
X75229126Y-91267245D01*
X75256523Y-91256634D01*
X75288152Y-91243396D01*
X75294161Y-91257414D01*
X75297645Y-91265961D01*
X75299814Y-91272084D01*
X75300170Y-91273672D01*
X75297540Y-91277262D01*
X75290106Y-91283216D01*
X75278552Y-91291134D01*
X75263562Y-91300614D01*
X75245818Y-91311255D01*
X75226005Y-91322657D01*
X75204807Y-91334419D01*
X75182906Y-91346140D01*
X75160987Y-91357419D01*
X75139733Y-91367854D01*
X75138866Y-91368268D01*
X75094728Y-91387974D01*
X75047751Y-91406555D01*
X74999438Y-91423519D01*
X74951294Y-91438376D01*
X74904824Y-91450635D01*
X74861530Y-91459805D01*
X74854664Y-91461009D01*
X74834659Y-91463979D01*
X74810190Y-91466943D01*
X74782938Y-91469743D01*
X74754582Y-91472220D01*
X74726800Y-91474217D01*
X74701273Y-91475573D01*
X74699505Y-91475645D01*
X74663211Y-91475853D01*
X74622727Y-91473966D01*
X74579559Y-91470187D01*
X74535216Y-91464716D01*
X74491208Y-91457756D01*
X74449041Y-91449508D01*
X74410224Y-91440174D01*
X74389186Y-91434142D01*
X74363740Y-91426127D01*
X74337605Y-91417576D01*
X74311890Y-91408876D01*
X74287703Y-91400414D01*
X74266154Y-91392578D01*
X74248351Y-91385755D01*
X74236121Y-91380656D01*
X74224911Y-91375329D01*
X74217611Y-91370559D01*
X74212390Y-91364716D01*
X74207417Y-91356166D01*
X74206369Y-91354141D01*
X74201372Y-91344998D01*
X74193998Y-91332263D01*
X74185184Y-91317523D01*
X74175866Y-91302362D01*
X74174465Y-91300120D01*
X74166340Y-91286805D01*
X74159777Y-91275364D01*
X74155301Y-91266772D01*
X74153442Y-91262004D01*
X74153520Y-91261406D01*
X74157025Y-91260386D01*
X74165742Y-91258495D01*
X74178827Y-91255895D01*
X74195435Y-91252753D01*
X74214721Y-91249232D01*
X74230955Y-91246350D01*
X74251663Y-91242689D01*
X74270285Y-91239340D01*
X74285991Y-91236458D01*
X74297952Y-91234196D01*
X74305337Y-91232709D01*
X74307390Y-91232184D01*
X74306207Y-91229460D01*
X74302091Y-91222881D01*
X74295752Y-91213540D01*
X74290491Y-91206110D01*
X74235648Y-91134850D01*
X74177075Y-91068351D01*
X74114899Y-91006706D01*
X74049249Y-90950008D01*
X73980251Y-90898349D01*
X73908033Y-90851823D01*
X73832722Y-90810521D01*
X73754446Y-90774536D01*
X73673331Y-90743961D01*
X73641043Y-90733551D01*
X73615935Y-90726217D01*
X73587787Y-90718649D01*
X73558290Y-90711253D01*
X73529135Y-90704436D01*
X73502014Y-90698602D01*
X73478615Y-90694159D01*
X73473465Y-90693300D01*
X73461932Y-90690730D01*
X73447343Y-90686477D01*
X73432275Y-90681317D01*
X73427378Y-90679445D01*
X73395792Y-90667864D01*
X73359531Y-90656093D01*
X73320040Y-90644515D01*
X73278761Y-90633510D01*
X73237139Y-90623458D01*
X73196617Y-90614740D01*
X73158639Y-90607738D01*
X73150368Y-90606402D01*
X73106749Y-90599570D01*
X73221880Y-90538491D01*
X73246369Y-90525463D01*
X73269148Y-90513275D01*
X73289647Y-90502237D01*
X73307299Y-90492657D01*
X73321534Y-90484846D01*
X73331785Y-90479111D01*
X73337483Y-90475764D01*
X73338471Y-90475051D01*
X73336690Y-90473329D01*
X73329501Y-90471931D01*
X73317634Y-90470851D01*
X73301819Y-90470084D01*
X73282784Y-90469625D01*
X73261258Y-90469470D01*
X73237970Y-90469613D01*
X73213650Y-90470050D01*
X73189027Y-90470775D01*
X73164830Y-90471783D01*
X73141787Y-90473070D01*
X73120629Y-90474631D01*
X73102083Y-90476460D01*
X73100291Y-90476671D01*
X73014428Y-90489947D01*
X72930662Y-90508911D01*
X72849201Y-90533428D01*
X72770254Y-90563366D01*
X72694030Y-90598591D01*
X72620739Y-90638971D01*
X72550590Y-90684373D01*
X72483791Y-90734663D01*
X72420552Y-90789708D01*
X72361083Y-90849375D01*
X72305591Y-90913530D01*
X72254287Y-90982042D01*
X72216982Y-91038952D01*
X72207624Y-91054492D01*
X72197879Y-91071321D01*
X72188218Y-91088555D01*
X72179111Y-91105307D01*
X72171028Y-91120691D01*
X72164439Y-91133822D01*
X72159815Y-91143814D01*
X72157625Y-91149781D01*
X72157553Y-91150901D01*
X72160230Y-91149713D01*
X72167705Y-91145429D01*
X72179609Y-91138278D01*
X72195574Y-91128491D01*
X72215233Y-91116297D01*
X72238216Y-91101928D01*
X72264155Y-91085614D01*
X72292682Y-91067584D01*
X72323428Y-91048069D01*
X72356026Y-91027300D01*
X72389017Y-91006204D01*
X72431901Y-90978766D01*
X72470086Y-90954410D01*
X72504018Y-90932861D01*
X72534145Y-90913846D01*
X72560914Y-90897090D01*
X72584774Y-90882320D01*
X72606172Y-90869261D01*
X72625556Y-90857639D01*
X72643372Y-90847180D01*
X72660069Y-90837611D01*
X72676095Y-90828656D01*
X72691896Y-90820042D01*
X72700871Y-90815235D01*
X72782292Y-90771870D01*
X72871393Y-90770602D01*
X72913349Y-90770297D01*
X72950650Y-90770713D01*
X72984751Y-90771938D01*
X73017109Y-90774056D01*
X73049179Y-90777154D01*
X73082419Y-90781319D01*
X73103363Y-90784341D01*
X73188330Y-90800056D01*
X73272141Y-90821405D01*
X73354288Y-90848175D01*
X73434262Y-90880157D01*
X73511555Y-90917140D01*
X73585660Y-90958913D01*
X73656066Y-91005264D01*
X73682200Y-91024377D01*
X73699321Y-91037561D01*
X73717131Y-91051792D01*
X73735073Y-91066573D01*
X73752590Y-91081407D01*
X73769127Y-91095795D01*
X73784126Y-91109241D01*
X73797030Y-91121245D01*
X73807284Y-91131312D01*
X73814330Y-91138942D01*
X73817612Y-91143638D01*
X73817049Y-91144952D01*
X73812927Y-91145329D01*
X73803834Y-91146369D01*
X73790893Y-91147939D01*
X73775225Y-91149902D01*
X73764922Y-91151221D01*
X73636887Y-91170759D01*
X73510454Y-91196090D01*
X73385814Y-91227119D01*
X73263158Y-91263750D01*
X73142679Y-91305889D01*
X73024566Y-91353440D01*
X72909012Y-91406308D01*
X72796207Y-91464398D01*
X72686343Y-91527615D01*
X72579611Y-91595863D01*
X72476202Y-91669047D01*
X72376307Y-91747073D01*
X72280118Y-91829844D01*
X72187825Y-91917266D01*
X72150814Y-91954785D01*
X72137222Y-91968940D01*
X72123560Y-91983343D01*
X72111094Y-91996647D01*
X72101088Y-92007507D01*
X72097728Y-92011235D01*
X72080063Y-92031057D01*
X72108899Y-91971293D01*
X72138378Y-91910867D01*
X72166794Y-91854074D01*
X72194808Y-91799691D01*
X72223080Y-91746498D01*
X72252271Y-91693273D01*
X72283041Y-91638793D01*
X72316050Y-91581838D01*
X72351958Y-91521186D01*
X72353967Y-91517825D01*
X72382261Y-91471079D01*
X72412366Y-91422406D01*
X72443606Y-91372849D01*
X72475306Y-91323450D01*
X72506792Y-91275250D01*
X72537389Y-91229294D01*
X72566421Y-91186622D01*
X72593213Y-91148278D01*
X72593939Y-91147256D01*
X72600674Y-91137541D01*
X72604267Y-91131123D01*
X72604219Y-91127750D01*
X72600028Y-91127171D01*
X72591195Y-91129132D01*
X72577218Y-91133382D01*
X72570610Y-91135494D01*
X72486630Y-91165599D01*
X72405727Y-91201009D01*
X72327971Y-91241682D01*
X72253435Y-91287574D01*
X72182190Y-91338643D01*
X72114308Y-91394846D01*
X72080111Y-91426327D01*
X72031126Y-91475066D01*
X71986974Y-91523401D01*
X71946595Y-91572663D01*
X71908928Y-91624184D01*
X71872912Y-91679296D01*
X71855112Y-91708748D01*
X71848263Y-91720107D01*
X71842888Y-91728528D01*
X71839512Y-91733224D01*
X71838662Y-91733410D01*
X71838684Y-91733327D01*
X71839728Y-91729385D01*
X71842196Y-91719996D01*
X71845956Y-91705655D01*
X71850879Y-91686862D01*
X71856834Y-91664113D01*
X71863691Y-91637906D01*
X71871320Y-91608739D01*
X71879590Y-91577109D01*
X71888372Y-91543513D01*
X71894170Y-91521328D01*
X71947964Y-91315473D01*
X72070794Y-91049706D01*
X72193625Y-90783938D01*
X72376816Y-90534024D01*
X72402268Y-90499275D01*
X72426648Y-90465936D01*
X72449715Y-90434340D01*
X72471230Y-90404817D01*
X72490952Y-90377701D01*
X72508639Y-90353323D01*
X72524051Y-90332015D01*
X72536948Y-90314109D01*
X72547089Y-90299938D01*
X72554233Y-90289832D01*
X72558139Y-90284125D01*
X72558826Y-90282927D01*
X72555325Y-90283152D01*
X72546950Y-90285149D01*
X72534613Y-90288627D01*
X72519228Y-90293292D01*
X72501707Y-90298852D01*
X72482963Y-90305016D01*
X72463910Y-90311490D01*
X72445460Y-90317982D01*
X72428526Y-90324201D01*
X72421278Y-90326974D01*
X72342363Y-90360652D01*
X72267212Y-90398924D01*
X72195478Y-90442024D01*
X72126812Y-90490185D01*
X72060865Y-90543638D01*
X71997290Y-90602618D01*
X71974143Y-90626049D01*
X71923966Y-90682091D01*
X71876776Y-90742977D01*
X71832974Y-90807975D01*
X71792960Y-90876355D01*
X71757136Y-90947386D01*
X71725902Y-91020338D01*
X71699661Y-91094478D01*
X71680968Y-91160314D01*
X71669611Y-91208042D01*
X71660600Y-91251793D01*
X71653759Y-91293148D01*
X71648911Y-91333686D01*
X71645880Y-91374987D01*
X71644489Y-91418632D01*
X71644560Y-91466200D01*
X71644872Y-91482922D01*
X71647181Y-91541930D01*
X71651516Y-91596681D01*
X71658105Y-91648795D01*
X71667180Y-91699894D01*
X71678969Y-91751597D01*
X71687563Y-91784023D01*
X71693783Y-91805360D01*
X71701233Y-91829235D01*
X71709431Y-91854241D01*
X71717894Y-91878969D01*
X71726142Y-91902011D01*
X71733691Y-91921959D01*
X71740061Y-91937406D01*
X71740084Y-91937457D01*
X71747466Y-91954167D01*
X71737079Y-91988153D01*
X71732875Y-92003147D01*
X71728008Y-92022520D01*
X71722747Y-92045002D01*
X71717357Y-92069326D01*
X71712106Y-92094220D01*
X71707260Y-92118417D01*
X71703086Y-92140647D01*
X71699850Y-92159641D01*
X71697820Y-92174129D01*
X71697644Y-92175761D01*
X71696239Y-92187107D01*
X71694665Y-92196284D01*
X71693258Y-92201329D01*
X71693242Y-92201360D01*
X71690773Y-92200827D01*
X71684823Y-92196282D01*
X71675267Y-92187606D01*
X71661982Y-92174683D01*
X71644842Y-92157395D01*
X71626372Y-92138374D01*
X71554811Y-92061771D01*
X71486364Y-91983716D01*
X71421677Y-91905001D01*
X71361396Y-91826420D01*
X71306169Y-91748764D01*
X71294513Y-91731513D01*
X71257079Y-91673702D01*
X71219175Y-91611662D01*
X71181796Y-91547132D01*
X71145933Y-91481853D01*
X71112581Y-91417562D01*
X71095473Y-91382853D01*
X71083295Y-91357283D01*
X71071564Y-91331984D01*
X71060572Y-91307643D01*
X71050613Y-91284947D01*
X71041978Y-91264580D01*
X71034960Y-91247230D01*
X71029854Y-91233582D01*
X71026950Y-91224322D01*
X71026383Y-91220957D01*
X71026995Y-91216101D01*
X71028719Y-91206087D01*
X71031383Y-91191765D01*
X71034814Y-91173984D01*
X71038842Y-91153596D01*
X71043294Y-91131450D01*
X71047999Y-91108398D01*
X71052785Y-91085290D01*
X71057481Y-91062976D01*
X71061914Y-91042307D01*
X71065913Y-91024133D01*
X71067774Y-91015909D01*
X71087090Y-90935855D01*
X71103258Y-90874429D01*
X71291229Y-90874429D01*
X71293295Y-90941778D01*
X71299500Y-91010866D01*
X71309672Y-91080460D01*
X71323643Y-91149326D01*
X71341243Y-91216229D01*
X71355521Y-91260912D01*
X71361947Y-91279444D01*
X71366744Y-91292597D01*
X71370287Y-91300801D01*
X71372953Y-91304486D01*
X71375116Y-91304081D01*
X71377153Y-91300017D01*
X71379440Y-91292721D01*
X71380405Y-91289357D01*
X71382995Y-91280582D01*
X71387076Y-91267095D01*
X71392296Y-91250048D01*
X71398303Y-91230590D01*
X71404743Y-91209871D01*
X71407746Y-91200256D01*
X71429999Y-91132179D01*
X71454919Y-91061412D01*
X71482026Y-90989114D01*
X71510843Y-90916441D01*
X71540891Y-90844552D01*
X71571692Y-90774602D01*
X71602768Y-90707750D01*
X71633640Y-90645152D01*
X71650931Y-90611881D01*
X71665005Y-90585863D01*
X71681164Y-90556868D01*
X71698963Y-90525634D01*
X71717956Y-90492897D01*
X71737700Y-90459394D01*
X71757749Y-90425861D01*
X71777659Y-90393034D01*
X71796985Y-90361651D01*
X71815282Y-90332448D01*
X71832107Y-90306162D01*
X71847013Y-90283529D01*
X71859558Y-90265285D01*
X71863300Y-90260084D01*
X71867010Y-90255449D01*
X71874475Y-90246519D01*
X71885407Y-90233629D01*
X71899518Y-90217111D01*
X71916520Y-90197300D01*
X71936127Y-90174530D01*
X71958051Y-90149134D01*
X71982003Y-90121445D01*
X72007696Y-90091798D01*
X72034843Y-90060527D01*
X72063155Y-90027964D01*
X72084426Y-90003534D01*
X72113197Y-89970507D01*
X72140883Y-89938724D01*
X72167210Y-89908500D01*
X72191905Y-89880147D01*
X72214693Y-89853981D01*
X72235302Y-89830316D01*
X72253458Y-89809466D01*
X72268888Y-89791745D01*
X72281317Y-89777466D01*
X72290472Y-89766945D01*
X72296080Y-89760496D01*
X72297821Y-89758487D01*
X72300783Y-89753686D01*
X72300769Y-89751422D01*
X72297060Y-89751150D01*
X72288322Y-89751953D01*
X72275546Y-89753666D01*
X72259721Y-89756124D01*
X72241838Y-89759163D01*
X72222885Y-89762617D01*
X72203854Y-89766321D01*
X72185733Y-89770109D01*
X72177018Y-89772054D01*
X72096667Y-89793375D01*
X72019257Y-89819930D01*
X71944338Y-89851918D01*
X71871456Y-89889533D01*
X71800161Y-89932972D01*
X71788352Y-89940825D01*
X71750447Y-89967243D01*
X71716420Y-89993051D01*
X71684394Y-90019794D01*
X71652491Y-90049014D01*
X71629971Y-90071024D01*
X71574151Y-90130338D01*
X71523897Y-90191348D01*
X71478718Y-90254790D01*
X71438123Y-90321399D01*
X71401622Y-90391910D01*
X71373940Y-90454267D01*
X71348020Y-90523945D01*
X71326988Y-90595988D01*
X71310734Y-90670892D01*
X71299147Y-90749148D01*
X71293471Y-90810054D01*
X71291229Y-90874429D01*
X71103258Y-90874429D01*
X71109210Y-90851818D01*
X71133749Y-90765065D01*
X71160320Y-90676865D01*
X71188537Y-90588485D01*
X71218016Y-90501194D01*
X71248370Y-90416261D01*
X71258452Y-90389128D01*
X71298706Y-90285363D01*
X71339486Y-90187309D01*
X71381021Y-90094539D01*
X71423542Y-90006625D01*
X71467279Y-89923141D01*
X71512462Y-89843659D01*
X71559319Y-89767753D01*
X71608082Y-89694995D01*
X71658980Y-89624958D01*
X71694238Y-89579535D01*
X71719669Y-89548214D01*
X71746713Y-89516003D01*
X71774504Y-89483876D01*
X71802174Y-89452807D01*
X71828857Y-89423768D01*
X71853684Y-89397734D01*
X71875789Y-89375676D01*
X71876266Y-89375217D01*
X71944202Y-89313302D01*
X72014899Y-89255929D01*
X72088997Y-89202647D01*
X72167135Y-89153011D01*
X72249952Y-89106571D01*
X72286090Y-89088010D01*
X72306821Y-89077790D01*
X72328736Y-89067271D01*
X72351125Y-89056765D01*
X72373280Y-89046585D01*
X72394493Y-89037045D01*
X72414054Y-89028458D01*
X72431255Y-89021136D01*
X72445389Y-89015394D01*
X72455745Y-89011543D01*
X72461616Y-89009898D01*
X72462634Y-89009984D01*
G37*
G36*
X74701905Y-90864887D02*
G01*
X74704967Y-90894047D01*
X74708171Y-90924982D01*
X74711365Y-90956211D01*
X74714401Y-90986253D01*
X74717128Y-91013628D01*
X74719394Y-91036853D01*
X74720005Y-91043243D01*
X74726833Y-91115128D01*
X74770009Y-91113153D01*
X74784183Y-91112653D01*
X74803302Y-91112199D01*
X74826163Y-91111807D01*
X74851568Y-91111495D01*
X74878315Y-91111278D01*
X74905204Y-91111173D01*
X74913210Y-91111166D01*
X75013235Y-91111155D01*
X75109847Y-90968837D01*
X75206460Y-90826519D01*
X75208426Y-90874359D01*
X75214319Y-90952648D01*
X75225421Y-91028699D01*
X75241639Y-91101858D01*
X75241685Y-91102033D01*
X75245095Y-91115923D01*
X75247529Y-91127622D01*
X75248754Y-91135875D01*
X75248570Y-91139404D01*
X75244561Y-91141278D01*
X75235541Y-91144353D01*
X75222467Y-91148366D01*
X75206295Y-91153052D01*
X75187983Y-91158147D01*
X75168487Y-91163387D01*
X75148763Y-91168507D01*
X75129769Y-91173243D01*
X75112461Y-91177331D01*
X75106162Y-91178739D01*
X75022921Y-91194054D01*
X74937557Y-91204093D01*
X74851301Y-91208729D01*
X74811719Y-91209013D01*
X74792641Y-91208824D01*
X74775255Y-91208572D01*
X74760658Y-91208280D01*
X74749947Y-91207969D01*
X74744217Y-91207662D01*
X74744055Y-91207644D01*
X74738310Y-91207078D01*
X74727767Y-91206144D01*
X74713756Y-91204957D01*
X74697606Y-91203629D01*
X74691450Y-91203133D01*
X74646526Y-91199532D01*
X74635827Y-91171474D01*
X74625129Y-91143416D01*
X74603852Y-91143416D01*
X74582576Y-91143416D01*
X74532686Y-91099421D01*
X74515726Y-91084217D01*
X74502111Y-91071497D01*
X74492198Y-91061613D01*
X74486340Y-91054919D01*
X74484875Y-91051798D01*
X74488315Y-91046338D01*
X74494851Y-91036478D01*
X74504048Y-91022847D01*
X74515471Y-91006072D01*
X74528683Y-90986782D01*
X74543249Y-90965606D01*
X74558733Y-90943171D01*
X74574701Y-90920107D01*
X74590716Y-90897042D01*
X74606344Y-90874604D01*
X74621148Y-90853422D01*
X74634693Y-90834123D01*
X74646544Y-90817338D01*
X74656265Y-90803693D01*
X74663421Y-90793817D01*
X74666571Y-90789612D01*
X74690632Y-90758415D01*
X74701905Y-90864887D01*
G37*
G36*
X75785618Y-89496579D02*
G01*
X75784082Y-89498115D01*
X75782546Y-89496579D01*
X75784082Y-89495043D01*
X75785618Y-89496579D01*
G37*
G36*
X75469035Y-85655952D02*
G01*
X75471503Y-85665476D01*
X75474732Y-85679746D01*
X75478599Y-85698104D01*
X75482982Y-85719893D01*
X75487757Y-85744453D01*
X75492803Y-85771127D01*
X75497995Y-85799258D01*
X75503213Y-85828187D01*
X75508332Y-85857257D01*
X75513231Y-85885809D01*
X75517787Y-85913185D01*
X75521876Y-85938727D01*
X75525376Y-85961779D01*
X75525815Y-85964790D01*
X75532777Y-86015850D01*
X75539314Y-86069753D01*
X75545372Y-86125706D01*
X75550896Y-86182916D01*
X75555832Y-86240591D01*
X75560126Y-86297937D01*
X75563725Y-86354164D01*
X75566574Y-86408479D01*
X75568619Y-86460088D01*
X75569806Y-86508199D01*
X75570081Y-86552021D01*
X75569390Y-86590760D01*
X75569088Y-86598878D01*
X75568245Y-86618096D01*
X75567356Y-86632742D01*
X75566150Y-86644384D01*
X75564356Y-86654589D01*
X75561703Y-86664926D01*
X75557920Y-86676963D01*
X75553152Y-86691051D01*
X75526213Y-86765316D01*
X75495430Y-86842209D01*
X75461498Y-86920218D01*
X75425112Y-86997828D01*
X75386968Y-87073526D01*
X75347761Y-87145801D01*
X75329915Y-87176874D01*
X75299516Y-87227049D01*
X75265564Y-87279937D01*
X75229052Y-87334126D01*
X75190973Y-87388205D01*
X75152319Y-87440761D01*
X75114084Y-87490384D01*
X75079257Y-87533279D01*
X75068696Y-87546009D01*
X75059682Y-87557070D01*
X75052888Y-87565618D01*
X75048992Y-87570808D01*
X75048326Y-87571945D01*
X75049848Y-87575334D01*
X75054282Y-87583383D01*
X75061294Y-87595541D01*
X75070545Y-87611253D01*
X75081699Y-87629966D01*
X75094419Y-87651127D01*
X75108370Y-87674182D01*
X75123212Y-87698577D01*
X75138611Y-87723759D01*
X75154230Y-87749175D01*
X75169731Y-87774270D01*
X75184777Y-87798492D01*
X75199033Y-87821286D01*
X75212161Y-87842100D01*
X75223426Y-87859760D01*
X75236708Y-87880400D01*
X75248639Y-87898851D01*
X75259648Y-87915735D01*
X75270163Y-87931678D01*
X75280613Y-87947303D01*
X75291424Y-87963236D01*
X75303027Y-87980100D01*
X75315848Y-87998521D01*
X75330316Y-88019121D01*
X75346859Y-88042527D01*
X75365905Y-88069362D01*
X75387884Y-88100251D01*
X75400335Y-88117732D01*
X75453358Y-88192157D01*
X75429764Y-88213677D01*
X75419506Y-88222640D01*
X75410540Y-88229758D01*
X75404033Y-88234143D01*
X75401561Y-88235112D01*
X75397047Y-88234124D01*
X75387979Y-88231482D01*
X75375600Y-88227569D01*
X75361155Y-88222767D01*
X75358547Y-88221878D01*
X75333127Y-88212855D01*
X75304884Y-88202284D01*
X75275174Y-88190715D01*
X75245359Y-88178700D01*
X75216796Y-88166789D01*
X75190844Y-88155534D01*
X75168864Y-88145485D01*
X75162113Y-88142234D01*
X75134082Y-88127565D01*
X75102320Y-88109299D01*
X75067646Y-88087969D01*
X75030883Y-88064107D01*
X74992848Y-88038242D01*
X74954365Y-88010908D01*
X74919185Y-87984857D01*
X74904883Y-87973536D01*
X74887116Y-87958654D01*
X74866765Y-87940995D01*
X74844710Y-87921342D01*
X74821834Y-87900478D01*
X74799016Y-87879185D01*
X74781365Y-87862339D01*
X74767661Y-87848666D01*
X74752064Y-87832356D01*
X74735262Y-87814198D01*
X74717942Y-87794982D01*
X74700791Y-87775497D01*
X74684498Y-87756535D01*
X74669749Y-87738884D01*
X74657231Y-87723334D01*
X74647633Y-87710674D01*
X74641850Y-87702054D01*
X74644289Y-87702243D01*
X74652036Y-87704074D01*
X74664520Y-87707387D01*
X74681176Y-87712021D01*
X74701433Y-87717816D01*
X74724725Y-87724611D01*
X74750483Y-87732248D01*
X74775409Y-87739738D01*
X74803048Y-87748062D01*
X74828843Y-87755769D01*
X74852207Y-87762688D01*
X74872556Y-87768648D01*
X74889302Y-87773479D01*
X74901859Y-87777009D01*
X74909641Y-87779069D01*
X74912075Y-87779529D01*
X74910900Y-87776566D01*
X74906137Y-87769724D01*
X74898343Y-87759662D01*
X74888076Y-87747038D01*
X74875892Y-87732510D01*
X74862348Y-87716735D01*
X74848002Y-87700372D01*
X74833410Y-87684079D01*
X74819130Y-87668514D01*
X74808902Y-87657653D01*
X74749806Y-87598656D01*
X74684748Y-87539205D01*
X74613884Y-87479422D01*
X74537369Y-87419431D01*
X74455360Y-87359353D01*
X74368013Y-87299312D01*
X74280114Y-87242344D01*
X74230802Y-87212765D01*
X74176775Y-87183081D01*
X74119116Y-87153759D01*
X74058911Y-87125265D01*
X73997244Y-87098068D01*
X73935199Y-87072632D01*
X73873863Y-87049426D01*
X73814318Y-87028915D01*
X73757650Y-87011567D01*
X73720927Y-87001719D01*
X73576804Y-86968076D01*
X73434087Y-86939792D01*
X73307682Y-86918992D01*
X73280030Y-86914877D01*
X73319972Y-86914592D01*
X73349082Y-86914728D01*
X73381514Y-86915470D01*
X73415772Y-86916739D01*
X73450362Y-86918459D01*
X73483789Y-86920552D01*
X73514559Y-86922940D01*
X73541178Y-86925547D01*
X73548870Y-86926451D01*
X73623299Y-86937225D01*
X73698036Y-86951064D01*
X73771959Y-86967679D01*
X73843949Y-86986783D01*
X73912885Y-87008087D01*
X73977647Y-87031303D01*
X74014347Y-87046163D01*
X74077509Y-87074417D01*
X74143687Y-87106723D01*
X74211863Y-87142497D01*
X74281016Y-87181159D01*
X74350127Y-87222125D01*
X74418176Y-87264814D01*
X74484143Y-87308644D01*
X74528566Y-87339714D01*
X74547754Y-87353464D01*
X74565795Y-87366445D01*
X74581943Y-87378117D01*
X74595452Y-87387938D01*
X74605579Y-87395370D01*
X74611577Y-87399871D01*
X74612149Y-87400319D01*
X74619537Y-87405307D01*
X74623086Y-87405541D01*
X74622774Y-87401081D01*
X74618581Y-87391989D01*
X74616391Y-87388066D01*
X74605584Y-87369655D01*
X74593511Y-87349696D01*
X74581029Y-87329556D01*
X74568994Y-87310599D01*
X74558265Y-87294194D01*
X74549699Y-87281705D01*
X74549435Y-87281337D01*
X74528652Y-87252550D01*
X74510568Y-87227946D01*
X74494460Y-87206608D01*
X74479602Y-87187620D01*
X74465269Y-87170064D01*
X74450736Y-87153023D01*
X74435276Y-87135579D01*
X74426907Y-87126347D01*
X74406042Y-87103472D01*
X74416049Y-87092888D01*
X74421541Y-87087849D01*
X74431074Y-87079917D01*
X74443728Y-87069823D01*
X74458581Y-87058299D01*
X74474713Y-87046078D01*
X74478288Y-87043408D01*
X74532277Y-87006065D01*
X74590065Y-86971380D01*
X74649843Y-86940352D01*
X74709806Y-86913977D01*
X74720445Y-86909814D01*
X74729823Y-86905812D01*
X74736408Y-86902235D01*
X74738619Y-86900120D01*
X74736092Y-86898097D01*
X74728712Y-86893306D01*
X74716958Y-86886033D01*
X74701310Y-86876563D01*
X74682245Y-86865185D01*
X74660244Y-86852183D01*
X74635785Y-86837845D01*
X74609347Y-86822456D01*
X74591708Y-86812247D01*
X74564109Y-86796302D01*
X74538040Y-86781234D01*
X74513999Y-86767333D01*
X74492486Y-86754886D01*
X74473996Y-86744182D01*
X74459029Y-86735508D01*
X74448082Y-86729154D01*
X74441653Y-86725406D01*
X74440159Y-86724521D01*
X74440595Y-86722677D01*
X74445289Y-86719026D01*
X74454518Y-86713407D01*
X74468558Y-86705660D01*
X74487686Y-86695624D01*
X74506217Y-86686153D01*
X74578238Y-86651785D01*
X74652887Y-86620209D01*
X74728209Y-86592202D01*
X74802249Y-86568536D01*
X74806083Y-86567422D01*
X74832340Y-86560106D01*
X74860961Y-86552600D01*
X74890855Y-86545153D01*
X74920933Y-86538014D01*
X74950104Y-86531431D01*
X74977279Y-86525654D01*
X75001366Y-86520931D01*
X75021276Y-86517511D01*
X75030562Y-86516212D01*
X75040031Y-86514747D01*
X75046434Y-86513170D01*
X75048205Y-86512101D01*
X75045446Y-86510593D01*
X75037519Y-86506964D01*
X75024941Y-86501434D01*
X75008225Y-86494224D01*
X74987888Y-86485553D01*
X74964443Y-86475641D01*
X74938405Y-86464709D01*
X74910290Y-86452976D01*
X74893098Y-86445834D01*
X74864042Y-86433767D01*
X74836784Y-86422416D01*
X74811835Y-86411994D01*
X74789707Y-86402717D01*
X74770911Y-86394801D01*
X74755957Y-86388460D01*
X74745358Y-86383909D01*
X74739624Y-86381364D01*
X74738730Y-86380889D01*
X74741725Y-86379736D01*
X74749569Y-86376936D01*
X74761299Y-86372827D01*
X74775948Y-86367748D01*
X74788606Y-86363391D01*
X74847421Y-86340662D01*
X74906050Y-86313111D01*
X74963039Y-86281538D01*
X75016935Y-86246746D01*
X75063591Y-86211732D01*
X75082525Y-86196330D01*
X75097123Y-86184321D01*
X75107864Y-86175280D01*
X75115228Y-86168784D01*
X75119694Y-86164409D01*
X75121741Y-86161730D01*
X75121849Y-86160324D01*
X75121783Y-86160249D01*
X75118489Y-86160160D01*
X75109618Y-86160527D01*
X75095715Y-86161311D01*
X75077329Y-86162476D01*
X75055006Y-86163985D01*
X75029294Y-86165802D01*
X75000740Y-86167889D01*
X74969891Y-86170210D01*
X74943581Y-86172237D01*
X74910999Y-86174762D01*
X74880055Y-86177137D01*
X74851326Y-86179320D01*
X74825389Y-86181267D01*
X74802822Y-86182937D01*
X74784204Y-86184286D01*
X74770111Y-86185271D01*
X74761122Y-86185850D01*
X74758044Y-86185991D01*
X74748990Y-86186007D01*
X74761117Y-86177255D01*
X74827294Y-86129347D01*
X74894131Y-86080672D01*
X74960981Y-86031710D01*
X75027194Y-85982944D01*
X75092125Y-85934853D01*
X75155124Y-85887918D01*
X75215545Y-85842621D01*
X75272739Y-85799443D01*
X75326058Y-85758863D01*
X75367173Y-85727296D01*
X75388642Y-85710780D01*
X75408564Y-85695541D01*
X75426423Y-85681966D01*
X75441705Y-85670442D01*
X75453894Y-85661358D01*
X75462475Y-85655100D01*
X75466932Y-85652058D01*
X75467451Y-85651832D01*
X75469035Y-85655952D01*
G37*
G36*
X71462017Y-85090321D02*
G01*
X71466498Y-85093596D01*
X71473120Y-85099101D01*
X71482277Y-85107163D01*
X71494363Y-85118111D01*
X71509772Y-85132271D01*
X71528899Y-85149971D01*
X71551605Y-85171044D01*
X71632891Y-85249002D01*
X71713200Y-85330888D01*
X71791402Y-85415464D01*
X71866366Y-85501493D01*
X71936962Y-85587737D01*
X71963873Y-85622211D01*
X71998747Y-85668769D01*
X72035298Y-85719866D01*
X72072798Y-85774387D01*
X72110514Y-85831217D01*
X72147717Y-85889242D01*
X72183676Y-85947347D01*
X72217661Y-86004417D01*
X72241108Y-86045324D01*
X72252117Y-86065139D01*
X72264165Y-86087270D01*
X72276952Y-86111130D01*
X72290179Y-86136130D01*
X72303546Y-86161683D01*
X72316756Y-86187201D01*
X72329507Y-86212096D01*
X72341502Y-86235780D01*
X72352442Y-86257666D01*
X72362026Y-86277166D01*
X72369956Y-86293692D01*
X72375933Y-86306656D01*
X72379658Y-86315470D01*
X72380831Y-86319547D01*
X72380762Y-86319720D01*
X72377654Y-86319030D01*
X72369298Y-86316478D01*
X72356241Y-86312247D01*
X72339030Y-86306522D01*
X72318212Y-86299487D01*
X72294333Y-86291324D01*
X72267941Y-86282219D01*
X72239582Y-86272356D01*
X72229412Y-86268800D01*
X72200500Y-86258716D01*
X72173367Y-86249327D01*
X72148559Y-86240816D01*
X72126623Y-86233368D01*
X72108105Y-86227165D01*
X72093552Y-86222394D01*
X72083511Y-86219236D01*
X72078529Y-86217877D01*
X72078083Y-86217860D01*
X72079778Y-86220380D01*
X72085171Y-86227167D01*
X72093938Y-86237835D01*
X72105757Y-86252004D01*
X72120305Y-86269291D01*
X72137261Y-86289312D01*
X72156300Y-86311686D01*
X72177101Y-86336030D01*
X72199342Y-86361962D01*
X72212319Y-86377050D01*
X72240608Y-86409969D01*
X72265016Y-86438502D01*
X72285724Y-86462872D01*
X72302916Y-86483300D01*
X72316774Y-86500011D01*
X72327480Y-86513226D01*
X72335218Y-86523167D01*
X72340170Y-86530058D01*
X72342518Y-86534122D01*
X72342446Y-86535579D01*
X72342425Y-86535583D01*
X72338203Y-86535303D01*
X72328618Y-86534134D01*
X72314375Y-86532181D01*
X72296175Y-86529543D01*
X72274721Y-86526324D01*
X72250716Y-86522626D01*
X72224862Y-86518550D01*
X72221695Y-86518045D01*
X72195912Y-86513945D01*
X72172107Y-86510199D01*
X72150945Y-86506908D01*
X72133090Y-86504174D01*
X72119207Y-86502098D01*
X72109961Y-86500782D01*
X72106015Y-86500327D01*
X72105921Y-86500340D01*
X72107421Y-86502971D01*
X72111980Y-86510349D01*
X72119330Y-86522053D01*
X72129204Y-86537662D01*
X72141333Y-86556757D01*
X72155452Y-86578916D01*
X72171292Y-86603720D01*
X72188586Y-86630747D01*
X72207066Y-86659577D01*
X72218664Y-86677645D01*
X72237759Y-86707412D01*
X72255846Y-86735672D01*
X72272655Y-86762000D01*
X72287916Y-86785969D01*
X72301359Y-86807154D01*
X72312714Y-86825129D01*
X72321712Y-86839468D01*
X72328082Y-86849746D01*
X72331554Y-86855536D01*
X72332135Y-86856676D01*
X72329434Y-86857751D01*
X72322507Y-86857798D01*
X72317582Y-86857355D01*
X72308093Y-86856353D01*
X72294390Y-86855073D01*
X72277335Y-86853581D01*
X72257790Y-86851945D01*
X72236614Y-86850229D01*
X72214670Y-86848499D01*
X72192818Y-86846823D01*
X72171921Y-86845265D01*
X72152837Y-86843892D01*
X72136430Y-86842771D01*
X72123560Y-86841966D01*
X72115088Y-86841545D01*
X72111876Y-86841572D01*
X72111875Y-86841573D01*
X72113410Y-86844208D01*
X72118275Y-86851342D01*
X72126153Y-86862532D01*
X72136722Y-86877333D01*
X72149665Y-86895302D01*
X72164661Y-86915994D01*
X72181391Y-86938967D01*
X72199535Y-86963777D01*
X72214021Y-86983514D01*
X72233122Y-87009535D01*
X72251136Y-87034143D01*
X72267732Y-87056880D01*
X72282579Y-87077290D01*
X72295346Y-87094917D01*
X72305702Y-87109303D01*
X72313317Y-87119992D01*
X72317859Y-87126527D01*
X72319045Y-87128416D01*
X72319567Y-87130072D01*
X72319150Y-87131089D01*
X72317041Y-87131332D01*
X72312486Y-87130665D01*
X72304732Y-87128953D01*
X72293027Y-87126060D01*
X72276616Y-87121850D01*
X72263046Y-87118338D01*
X72188548Y-87096478D01*
X72117883Y-87070388D01*
X72050084Y-87039674D01*
X71989520Y-87007059D01*
X71973947Y-86997814D01*
X71957413Y-86987645D01*
X71940710Y-86977078D01*
X71924628Y-86966640D01*
X71909960Y-86956857D01*
X71897496Y-86948255D01*
X71888029Y-86941362D01*
X71882348Y-86936704D01*
X71881083Y-86934904D01*
X71879600Y-86932366D01*
X71875000Y-86927751D01*
X71869098Y-86922642D01*
X71863712Y-86918625D01*
X71860853Y-86917251D01*
X71860524Y-86919458D01*
X71861871Y-86922628D01*
X71862947Y-86926473D01*
X71865046Y-86935663D01*
X71868050Y-86949592D01*
X71871838Y-86967655D01*
X71876290Y-86989246D01*
X71881286Y-87013758D01*
X71886707Y-87040586D01*
X71892432Y-87069123D01*
X71898342Y-87098764D01*
X71904317Y-87128902D01*
X71910237Y-87158933D01*
X71915982Y-87188249D01*
X71921432Y-87216244D01*
X71926468Y-87242314D01*
X71930969Y-87265851D01*
X71934815Y-87286249D01*
X71937888Y-87302904D01*
X71940065Y-87315208D01*
X71941229Y-87322556D01*
X71941362Y-87324452D01*
X71938847Y-87322930D01*
X71933062Y-87317822D01*
X71924962Y-87310007D01*
X71918553Y-87303523D01*
X71868893Y-87250117D01*
X71818841Y-87191906D01*
X71769306Y-87130089D01*
X71721195Y-87065867D01*
X71675418Y-87000439D01*
X71632881Y-86935006D01*
X71605733Y-86890204D01*
X71561838Y-86810652D01*
X71520716Y-86726537D01*
X71482816Y-86638988D01*
X71448590Y-86549131D01*
X71418490Y-86458095D01*
X71392965Y-86367006D01*
X71387351Y-86344354D01*
X71367286Y-86253591D01*
X71351510Y-86164911D01*
X71339842Y-86076771D01*
X71332099Y-85987629D01*
X71328101Y-85895943D01*
X71327424Y-85834425D01*
X71329696Y-85730486D01*
X71336432Y-85629925D01*
X71347797Y-85531730D01*
X71363957Y-85434888D01*
X71385075Y-85338386D01*
X71411316Y-85241214D01*
X71437459Y-85158270D01*
X71443574Y-85139778D01*
X71448927Y-85123147D01*
X71453233Y-85109295D01*
X71456210Y-85099143D01*
X71457572Y-85093608D01*
X71457623Y-85092980D01*
X71457481Y-85090606D01*
X71457903Y-85089154D01*
X71459283Y-85088950D01*
X71462017Y-85090321D01*
G37*
D12*
%TO.C,D14*%
X88656000Y-85760000D02*
X88656000Y-86960000D01*
X90616000Y-85760000D02*
X88656000Y-85760000D01*
X90616000Y-86960000D02*
X88656000Y-86960000D01*
%TO.C,D16*%
X112024000Y-85760000D02*
X112024000Y-86960000D01*
X113984000Y-85760000D02*
X112024000Y-85760000D01*
X113984000Y-86960000D02*
X112024000Y-86960000D01*
%TO.C,D5*%
X77480000Y-65440000D02*
X77480000Y-66640000D01*
X79440000Y-65440000D02*
X77480000Y-65440000D01*
X79440000Y-66640000D02*
X77480000Y-66640000D01*
%TO.C,D8*%
X112024000Y-65440000D02*
X112024000Y-66640000D01*
X113984000Y-65440000D02*
X112024000Y-65440000D01*
X113984000Y-66640000D02*
X112024000Y-66640000D01*
%TO.C,D12*%
X112024000Y-75600000D02*
X112024000Y-76800000D01*
X113984000Y-75600000D02*
X112024000Y-75600000D01*
X113984000Y-76800000D02*
X112024000Y-76800000D01*
%TO.C,SW10*%
X82530000Y-67820000D02*
X83530000Y-67820000D01*
X82530000Y-68820000D02*
X82530000Y-67820000D01*
X84530000Y-69820000D02*
X84530000Y-72420000D01*
X90530000Y-67870000D02*
X84730000Y-67870000D01*
X90630000Y-74370000D02*
X84630000Y-74370000D01*
X90730000Y-69820000D02*
X90730000Y-72420000D01*
%TO.C,D10*%
X88656000Y-75600000D02*
X88656000Y-76800000D01*
X90616000Y-75600000D02*
X88656000Y-75600000D01*
X90616000Y-76800000D02*
X88656000Y-76800000D01*
%TO.C,D7*%
X100340000Y-65440000D02*
X100340000Y-66640000D01*
X102300000Y-65440000D02*
X100340000Y-65440000D01*
X102300000Y-66640000D02*
X100340000Y-66640000D01*
%TO.C,SW3*%
X93960000Y-47500000D02*
X94960000Y-47500000D01*
X93960000Y-48500000D02*
X93960000Y-47500000D01*
X95960000Y-49500000D02*
X95960000Y-52100000D01*
X101960000Y-47550000D02*
X96160000Y-47550000D01*
X102060000Y-54050000D02*
X96060000Y-54050000D01*
X102160000Y-49500000D02*
X102160000Y-52100000D01*
%TO.C,SW8*%
X105390000Y-57660000D02*
X106390000Y-57660000D01*
X105390000Y-58660000D02*
X105390000Y-57660000D01*
X107390000Y-59660000D02*
X107390000Y-62260000D01*
X113390000Y-57710000D02*
X107590000Y-57710000D01*
X113490000Y-64210000D02*
X107490000Y-64210000D01*
X113590000Y-59660000D02*
X113590000Y-62260000D01*
%TO.C,SW15*%
X93960000Y-77980000D02*
X94960000Y-77980000D01*
X93960000Y-78980000D02*
X93960000Y-77980000D01*
X95960000Y-79980000D02*
X95960000Y-82580000D01*
X101960000Y-78030000D02*
X96160000Y-78030000D01*
X102060000Y-84530000D02*
X96060000Y-84530000D01*
X102160000Y-79980000D02*
X102160000Y-82580000D01*
%TO.C,SW14*%
X82530000Y-77980000D02*
X83530000Y-77980000D01*
X82530000Y-78980000D02*
X82530000Y-77980000D01*
X84530000Y-79980000D02*
X84530000Y-82580000D01*
X90530000Y-78030000D02*
X84730000Y-78030000D01*
X90630000Y-84530000D02*
X84630000Y-84530000D01*
X90730000Y-79980000D02*
X90730000Y-82580000D01*
%TO.C,SW9*%
X71100000Y-67820000D02*
X72100000Y-67820000D01*
X71100000Y-68820000D02*
X71100000Y-67820000D01*
X73100000Y-69820000D02*
X73100000Y-72420000D01*
X79100000Y-67870000D02*
X73300000Y-67870000D01*
X79200000Y-74370000D02*
X73200000Y-74370000D01*
X79300000Y-69820000D02*
X79300000Y-72420000D01*
%TO.C,D11*%
X100340000Y-75600000D02*
X100340000Y-76800000D01*
X102300000Y-75600000D02*
X100340000Y-75600000D01*
X102300000Y-76800000D02*
X100340000Y-76800000D01*
%TO.C,SW4*%
X105390000Y-47500000D02*
X106390000Y-47500000D01*
X105390000Y-48500000D02*
X105390000Y-47500000D01*
X107390000Y-49500000D02*
X107390000Y-52100000D01*
X113390000Y-47550000D02*
X107590000Y-47550000D01*
X113490000Y-54050000D02*
X107490000Y-54050000D01*
X113590000Y-49500000D02*
X113590000Y-52100000D01*
%TO.C,SW11*%
X93960000Y-67820000D02*
X94960000Y-67820000D01*
X93960000Y-68820000D02*
X93960000Y-67820000D01*
X95960000Y-69820000D02*
X95960000Y-72420000D01*
X101960000Y-67870000D02*
X96160000Y-67870000D01*
X102060000Y-74370000D02*
X96060000Y-74370000D01*
X102160000Y-69820000D02*
X102160000Y-72420000D01*
%TO.C,D6*%
X88656000Y-65440000D02*
X88656000Y-66640000D01*
X90616000Y-65440000D02*
X88656000Y-65440000D01*
X90616000Y-66640000D02*
X88656000Y-66640000D01*
%TO.C,SW7*%
X93960000Y-57660000D02*
X94960000Y-57660000D01*
X93960000Y-58660000D02*
X93960000Y-57660000D01*
X95960000Y-59660000D02*
X95960000Y-62260000D01*
X101960000Y-57710000D02*
X96160000Y-57710000D01*
X102060000Y-64210000D02*
X96060000Y-64210000D01*
X102160000Y-59660000D02*
X102160000Y-62260000D01*
%TO.C,D13*%
X77480000Y-85760000D02*
X77480000Y-86960000D01*
X79440000Y-85760000D02*
X77480000Y-85760000D01*
X79440000Y-86960000D02*
X77480000Y-86960000D01*
%TO.C,SW5*%
X71100000Y-57660000D02*
X72100000Y-57660000D01*
X71100000Y-58660000D02*
X71100000Y-57660000D01*
X73100000Y-59660000D02*
X73100000Y-62260000D01*
X79100000Y-57710000D02*
X73300000Y-57710000D01*
X79200000Y-64210000D02*
X73200000Y-64210000D01*
X79300000Y-59660000D02*
X79300000Y-62260000D01*
%TO.C,D2*%
X88656000Y-55280000D02*
X88656000Y-56480000D01*
X90616000Y-55280000D02*
X88656000Y-55280000D01*
X90616000Y-56480000D02*
X88656000Y-56480000D01*
%TO.C,D9*%
X77480000Y-75600000D02*
X77480000Y-76800000D01*
X79440000Y-75600000D02*
X77480000Y-75600000D01*
X79440000Y-76800000D02*
X77480000Y-76800000D01*
%TO.C,SW1*%
X71100000Y-47500000D02*
X72100000Y-47500000D01*
X71100000Y-48500000D02*
X71100000Y-47500000D01*
X73100000Y-49500000D02*
X73100000Y-52100000D01*
X79100000Y-47550000D02*
X73300000Y-47550000D01*
X79200000Y-54050000D02*
X73200000Y-54050000D01*
X79300000Y-49500000D02*
X79300000Y-52100000D01*
%TO.C,D4*%
X112024000Y-55280000D02*
X112024000Y-56480000D01*
X113984000Y-55280000D02*
X112024000Y-55280000D01*
X113984000Y-56480000D02*
X112024000Y-56480000D01*
%TO.C,D1*%
X77480000Y-55280000D02*
X77480000Y-56480000D01*
X79440000Y-55280000D02*
X77480000Y-55280000D01*
X79440000Y-56480000D02*
X77480000Y-56480000D01*
%TO.C,SW6*%
X82530000Y-57660000D02*
X83530000Y-57660000D01*
X82530000Y-58660000D02*
X82530000Y-57660000D01*
X84530000Y-59660000D02*
X84530000Y-62260000D01*
X90530000Y-57710000D02*
X84730000Y-57710000D01*
X90630000Y-64210000D02*
X84630000Y-64210000D01*
X90730000Y-59660000D02*
X90730000Y-62260000D01*
%TO.C,SW2*%
X82530000Y-47500000D02*
X83530000Y-47500000D01*
X82530000Y-48500000D02*
X82530000Y-47500000D01*
X84530000Y-49500000D02*
X84530000Y-52100000D01*
X90530000Y-47550000D02*
X84730000Y-47550000D01*
X90630000Y-54050000D02*
X84630000Y-54050000D01*
X90730000Y-49500000D02*
X90730000Y-52100000D01*
%TO.C,D15*%
X100340000Y-85760000D02*
X100340000Y-86960000D01*
X102300000Y-85760000D02*
X100340000Y-85760000D01*
X102300000Y-86960000D02*
X100340000Y-86960000D01*
%TO.C,J1*%
X83775000Y-91500000D02*
X83775000Y-90170000D01*
X85105000Y-91500000D02*
X83775000Y-91500000D01*
X86375000Y-91500000D02*
X104215000Y-91500000D01*
X86375000Y-91500000D02*
X86375000Y-88840000D01*
X104215000Y-91500000D02*
X104215000Y-88840000D01*
X86375000Y-88840000D02*
X104215000Y-88840000D01*
%TO.C,SW12*%
X105390000Y-67820000D02*
X106390000Y-67820000D01*
X105390000Y-68820000D02*
X105390000Y-67820000D01*
X107390000Y-69820000D02*
X107390000Y-72420000D01*
X113390000Y-67870000D02*
X107590000Y-67870000D01*
X113490000Y-74370000D02*
X107490000Y-74370000D01*
X113590000Y-69820000D02*
X113590000Y-72420000D01*
%TO.C,D3*%
X100340000Y-55280000D02*
X100340000Y-56480000D01*
X102300000Y-55280000D02*
X100340000Y-55280000D01*
X102300000Y-56480000D02*
X100340000Y-56480000D01*
%TO.C,SW16*%
X105390000Y-77980000D02*
X106390000Y-77980000D01*
X105390000Y-78980000D02*
X105390000Y-77980000D01*
X107390000Y-79980000D02*
X107390000Y-82580000D01*
X113390000Y-78030000D02*
X107590000Y-78030000D01*
X113490000Y-84530000D02*
X107490000Y-84530000D01*
X113590000Y-79980000D02*
X113590000Y-82580000D01*
%TO.C,SW13*%
X71100000Y-77980000D02*
X72100000Y-77980000D01*
X71100000Y-78980000D02*
X71100000Y-77980000D01*
X73100000Y-79980000D02*
X73100000Y-82580000D01*
X79100000Y-78030000D02*
X73300000Y-78030000D01*
X79200000Y-84530000D02*
X73200000Y-84530000D01*
X79300000Y-79980000D02*
X79300000Y-82580000D01*
%TD*%
M02*
