%TF.GenerationSoftware,KiCad,Pcbnew,7.0.2*%
%TF.CreationDate,2023-04-22T16:22:17+02:00*%
%TF.ProjectId,Button_matrix,42757474-6f6e-45f6-9d61-747269782e6b,rev?*%
%TF.SameCoordinates,Original*%
%TF.FileFunction,Paste,Top*%
%TF.FilePolarity,Positive*%
%FSLAX46Y46*%
G04 Gerber Fmt 4.6, Leading zero omitted, Abs format (unit mm)*
G04 Created by KiCad (PCBNEW 7.0.2) date 2023-04-22 16:22:17*
%MOMM*%
%LPD*%
G01*
G04 APERTURE LIST*
G04 Aperture macros list*
%AMRoundRect*
0 Rectangle with rounded corners*
0 $1 Rounding radius*
0 $2 $3 $4 $5 $6 $7 $8 $9 X,Y pos of 4 corners*
0 Add a 4 corners polygon primitive as box body*
4,1,4,$2,$3,$4,$5,$6,$7,$8,$9,$2,$3,0*
0 Add four circle primitives for the rounded corners*
1,1,$1+$1,$2,$3*
1,1,$1+$1,$4,$5*
1,1,$1+$1,$6,$7*
1,1,$1+$1,$8,$9*
0 Add four rect primitives between the rounded corners*
20,1,$1+$1,$2,$3,$4,$5,0*
20,1,$1+$1,$4,$5,$6,$7,0*
20,1,$1+$1,$6,$7,$8,$9,0*
20,1,$1+$1,$8,$9,$2,$3,0*%
G04 Aperture macros list end*
%ADD10RoundRect,0.150000X0.150000X0.200000X-0.150000X0.200000X-0.150000X-0.200000X0.150000X-0.200000X0*%
%ADD11R,1.600000X1.400000*%
G04 APERTURE END LIST*
D10*
%TO.C,D14*%
X89216000Y-86360000D03*
X90616000Y-86360000D03*
%TD*%
%TO.C,D16*%
X112584000Y-86360000D03*
X113984000Y-86360000D03*
%TD*%
%TO.C,D5*%
X78040000Y-66040000D03*
X79440000Y-66040000D03*
%TD*%
%TO.C,D8*%
X112584000Y-66040000D03*
X113984000Y-66040000D03*
%TD*%
%TO.C,D12*%
X112584000Y-76200000D03*
X113984000Y-76200000D03*
%TD*%
D11*
%TO.C,SW10*%
X83630000Y-68870000D03*
X91630000Y-68870000D03*
X83630000Y-73370000D03*
X91630000Y-73370000D03*
%TD*%
D10*
%TO.C,D10*%
X89216000Y-76200000D03*
X90616000Y-76200000D03*
%TD*%
%TO.C,D7*%
X100900000Y-66040000D03*
X102300000Y-66040000D03*
%TD*%
D11*
%TO.C,SW3*%
X95060000Y-48550000D03*
X103060000Y-48550000D03*
X95060000Y-53050000D03*
X103060000Y-53050000D03*
%TD*%
%TO.C,SW8*%
X106490000Y-58710000D03*
X114490000Y-58710000D03*
X106490000Y-63210000D03*
X114490000Y-63210000D03*
%TD*%
%TO.C,SW15*%
X95060000Y-79030000D03*
X103060000Y-79030000D03*
X95060000Y-83530000D03*
X103060000Y-83530000D03*
%TD*%
%TO.C,SW14*%
X83630000Y-79030000D03*
X91630000Y-79030000D03*
X83630000Y-83530000D03*
X91630000Y-83530000D03*
%TD*%
%TO.C,SW9*%
X72200000Y-68870000D03*
X80200000Y-68870000D03*
X72200000Y-73370000D03*
X80200000Y-73370000D03*
%TD*%
D10*
%TO.C,D11*%
X100900000Y-76200000D03*
X102300000Y-76200000D03*
%TD*%
D11*
%TO.C,SW4*%
X106490000Y-48550000D03*
X114490000Y-48550000D03*
X106490000Y-53050000D03*
X114490000Y-53050000D03*
%TD*%
%TO.C,SW11*%
X95060000Y-68870000D03*
X103060000Y-68870000D03*
X95060000Y-73370000D03*
X103060000Y-73370000D03*
%TD*%
D10*
%TO.C,D6*%
X89216000Y-66040000D03*
X90616000Y-66040000D03*
%TD*%
D11*
%TO.C,SW7*%
X95060000Y-58710000D03*
X103060000Y-58710000D03*
X95060000Y-63210000D03*
X103060000Y-63210000D03*
%TD*%
D10*
%TO.C,D13*%
X78040000Y-86360000D03*
X79440000Y-86360000D03*
%TD*%
D11*
%TO.C,SW5*%
X72200000Y-58710000D03*
X80200000Y-58710000D03*
X72200000Y-63210000D03*
X80200000Y-63210000D03*
%TD*%
D10*
%TO.C,D2*%
X89216000Y-55880000D03*
X90616000Y-55880000D03*
%TD*%
%TO.C,D9*%
X78040000Y-76200000D03*
X79440000Y-76200000D03*
%TD*%
D11*
%TO.C,SW1*%
X72200000Y-48550000D03*
X80200000Y-48550000D03*
X72200000Y-53050000D03*
X80200000Y-53050000D03*
%TD*%
D10*
%TO.C,D4*%
X112584000Y-55880000D03*
X113984000Y-55880000D03*
%TD*%
%TO.C,D1*%
X78040000Y-55880000D03*
X79440000Y-55880000D03*
%TD*%
D11*
%TO.C,SW6*%
X83630000Y-58710000D03*
X91630000Y-58710000D03*
X83630000Y-63210000D03*
X91630000Y-63210000D03*
%TD*%
%TO.C,SW2*%
X83630000Y-48550000D03*
X91630000Y-48550000D03*
X83630000Y-53050000D03*
X91630000Y-53050000D03*
%TD*%
D10*
%TO.C,D15*%
X100900000Y-86360000D03*
X102300000Y-86360000D03*
%TD*%
D11*
%TO.C,SW12*%
X106490000Y-68870000D03*
X114490000Y-68870000D03*
X106490000Y-73370000D03*
X114490000Y-73370000D03*
%TD*%
D10*
%TO.C,D3*%
X100900000Y-55880000D03*
X102300000Y-55880000D03*
%TD*%
D11*
%TO.C,SW16*%
X106490000Y-79030000D03*
X114490000Y-79030000D03*
X106490000Y-83530000D03*
X114490000Y-83530000D03*
%TD*%
%TO.C,SW13*%
X72200000Y-79030000D03*
X80200000Y-79030000D03*
X72200000Y-83530000D03*
X80200000Y-83530000D03*
%TD*%
M02*
